<?xml version="1.0" encoding="UTF-8" standalone="no"?>
<!-- Created with Inkscape (http://www.inkscape.org/) -->

<svg
   width="82.550972mm"
   height="60.798573mm"
   viewBox="0 0 82.550972 60.798572"
   version="1.1"
   id="svg1"
   xmlns="http://www.w3.org/2000/svg"
   xmlns:svg="http://www.w3.org/2000/svg">
  <defs
     id="defs1" />
  <g
     id="layer1"
     transform="translate(52.122864,-77.787317)">
    <path
       style="fill:#ffffff;fill-opacity:1;stroke:none;stroke-width:0.109734"
       d="m -36.802102,77.787317 v 6.124266 h 6.14722 v 5.762511 c 4.448072,-1.155828 9.348701,-1.95274 14.521335,-2.315305 l -1.894381,-3.447206 -3.365852,-6.124266 z m 35.4236516,0 v 6.124266 h 6.0879686 v 35.211387 c 2.6947823,-0.62131 5.085075,-1.41701 7.1523848,-2.31531 V 83.911583 h 6.076532 v -6.124266 z m -3.5161502,10.902904 v 5.362231 c 2.8196118,0.137888 5.5318735,0.45787 8.0584727,0.93034 V 89.618128 C 0.66785164,89.184997 -2.0198741,88.853659 -4.8946006,88.690221 Z m -9.0770204,0.04056 c -21.884243,1.16475 -38.151243,9.788848 -38.151243,18.915829 0,7.64347 8.261047,13.43031 19.873913,16.71733 v -8.18975 c -3.47381,-2.2415 -5.726174,-5.06699 -5.726174,-8.38077 0,-4.97695 6.071097,-9.346385 14.472912,-11.714007 3.138458,-0.884107 6.348212,-1.46121 9.530592,-1.777947 z m 1.552013,-0.1095 v 12.008849 h -8.930859 v 6.01233 h 8.930859 v 20.77124 c 1.481934,0.0973 4.6206755,0.13789 6.0118462,0 v -20.77124 h 8.9308592 v -6.01233 H -6.4077618 V 88.621277 c -1.8259242,-0.170332 -3.8387682,-0.15411 -6.0118462,0 z m 33.183049,1.489193 v 4.762822 C 18.876075,94.137216 16.40966,93.15456 13.407225,92.185287 v 6.02531 c 0.482527,0.235221 0.942101,0.480176 1.375597,0.730402 H 28.445154 V 90.11047 Z m -34.735711,5.66599 h -0.03244 c 0,0 -0.07665,0 -0.146405,0.04056 -0.19426,0.04055 -0.560232,0.06083 -0.864681,0.09733 -1.90079,0.223055 -3.537523,0.497209 -4.785696,0.800969 l -0.146404,0.04055 0.03244,0.04056 c 0,0.04055 0.299299,0.545875 0.644303,1.172455 l 0.626499,1.140012 h 2.336111 2.335827 v -1.648982 z m -9.530227,1.742664 c -2.760401,0.801374 -5.183462,1.815258 -7.152385,2.994202 v 31.9483 h -6.14722 v 6.12426 h 19.386276 v -6.12426 h -6.086671 z m 18.6078964,10.694442 v 12.22947 c 2.3237008,-0.11761 4.51048663,-0.35688 6.5491643,-0.69633 l -6.3517002,-11.53314 z m 35.3227086,8.00442 h -14.1449 c -6.377777,3.98132 -14.8509688,5.32492 -21.1778086,5.70411 v 5.42185 C 7.578202,126.83092 23.051493,123.6822 30.428108,116.20095 Z m -52.425109,4.18774 v 6.08858 c 2.608765,0.36905 5.296206,0.63672 8.02538,0.78961 v -5.45713 c -2.680142,-0.26361 -5.411181,-0.74419 -8.02538,-1.42106 z m 33.858904,6.17212 c -4.3534563,1.00699 -9.1614165,1.71185 -14.3165306,2.05576 l 5.4694588,9.95228 h 1.694687 7.1523848 z"
       id="path1731-7" />
  </g>
</svg>
