<?xml version="1.0" encoding="UTF-8" standalone="no"?>
<!-- Created with Inkscape (http://www.inkscape.org/) -->

<svg
   width="8.3932943in"
   height="4.4082494in"
   viewBox="0 0 213.18968 111.96953"
   version="1.1"
   id="svg8"
   xmlns="http://www.w3.org/2000/svg"
   xmlns:svg="http://www.w3.org/2000/svg"
   xmlns:rdf="http://www.w3.org/1999/02/22-rdf-syntax-ns#"
   xmlns:cc="http://creativecommons.org/ns#"
   xmlns:dc="http://purl.org/dc/elements/1.1/">
  <defs
     id="defs2" />
  <metadata
     id="metadata5">
    <rdf:RDF>
      <cc:Work
         rdf:about="">
        <dc:format>image/svg+xml</dc:format>
        <dc:type
           rdf:resource="http://purl.org/dc/dcmitype/StillImage" />
      </cc:Work>
    </rdf:RDF>
  </metadata>
  <g
     id="layer1"
     transform="translate(13.990678,-33.128329)">
    <g
       style="fill:#ffffff;fill-opacity:1"
       transform="matrix(0.80338693,0,0,0.80338693,-385.02693,-598.47993)"
       id="g6027">
      <g
         style="fill:#ffffff;fill-opacity:1"
         id="g6025">
        <g
           style="fill:#ffffff;fill-opacity:1"
           id="g5996"
           transform="translate(-137.39833,834.03249)">
          <path
             id="path5994"
             d="m 752.36651,-45.811452 c -36.99709,-2.6e-5 -72.47888,7.234449 -98.63974,20.111958 -26.16086,12.877483 -40.85783,30.3431309 -40.8577,48.554666 1.6e-4,18.211429 14.69724,35.676945 40.85807,48.554322 26.16084,12.877403 61.64247,20.111799 98.63937,20.111773 41.56858,-0.01058 80.96181,-9.14617 107.44615,-24.917347 -23.32482,9.919573 -53.78101,15.431479 -85.39634,15.454868 -33.63007,2.6e-5 -65.88278,-6.209321 -89.66279,-17.262052 -23.78003,-11.052757 -37.13945,-26.043493 -37.1393,-41.674414 1.6e-4,-15.6308159 13.35969,-30.6214195 37.1397,-41.674071 23.77998,-11.052624 56.0325,-17.261892 89.66239,-17.261866 32.98426,0.02249 64.65147,6.018107 88.28143,16.714232 C 836.30596,-35.931672 795.5618,-45.796159 752.36651,-45.811452 Z M 629.99309,-3.7468296 h 9.62163 v 7.2832647 h 9.42165 v 9.6216519 h -9.42165 v 36.682494 h -9.62163 V 13.158087 h -9.42112 V 3.5364351 h 9.42112 z"
             style="fill:#ffffff;fill-opacity:1;stroke-width:0.27288899" />
        </g>
        <g
           style="fill:#ffffff;fill-opacity:1"
           id="g6002"
           transform="translate(-137.39833,834.03249)">
          <path
             id="path5998"
             d="m 745.68474,-47.850595 c -38.84011,-2.7e-5 -76.08945,7.386478 -103.55349,20.53455 -27.46407,13.148098 -42.89311,30.9807236 -42.89288,49.574873 0.0852,33.033784 48.32623,61.55756 115.80069,68.470223 -23.73429,-3.224503 -44.97662,-9.450625 -61.97605,-17.841277 -8.89825,-4.39203 -16.65888,-9.394243 -22.99602,-14.886966 -8.74607,-7.024079 -15.01074,-14.915886 -18.10536,-23.408905 -0.22579,-0.619072 -0.43355,-1.239599 -0.62323,-1.86137 -0.3303,-1.07741 -0.61179,-2.163524 -0.8392,-3.258714 -0.59193,-2.394638 -0.91607,-4.802293 -0.97102,-7.212991 0.0387,-5.032587 1.25037,-10.047949 3.61323,-14.9556788 0.80079,-1.7567539 1.73921,-3.4852504 2.80707,-5.1836637 0.0529,-0.08427 0.1061,-0.1685131 0.15967,-0.2527035 6.96191,-10.9209151 19.3167,-20.575243 35.36114,-28.297505 0.59487,-0.286305 1.19886,-0.567928 1.80404,-0.849048 25.49803,-12.53363 60.47679,-20.221019 99.09265,-20.220992 2.96698,0 5.92182,0.04972 8.862,0.142134 -5.15919,-0.295884 -10.34759,-0.460111 -15.54324,-0.491966 z m 23.61304,15.148427 c -32.92557,2.38e-4 -62.7161,6.530287 -84.05898,16.925581 -21.3433,10.3955055 -33.86904,24.4201153 -33.86923,39.23067 -8e-5,14.81066 12.52434,28.833021 33.8677,39.228632 4.04196,1.968686 8.38774,3.798041 12.99972,5.471478 C 676.73044,57.476033 664.252,41.610717 664.1848,24.859682 c -6e-5,-31.1310599 42.05308,-56.367759 93.92811,-56.3676 51.87484,0 93.92767,25.2366459 93.92761,56.3676 -0.007,25.395554 -28.31208,47.652251 -69.12808,54.357401 13.11881,-0.747421 25.83698,-2.552461 37.63335,-5.302514 27.95868,-12.993502 43.97669,-31.557701 44.05622,-51.059397 -0.036,-18.2272778 -14.0032,-35.69925 -38.82398,-48.566043 -17.1618,-4.517787 -36.5647,-6.976956 -56.48025,-6.991297 z"
             style="fill:#ffffff;fill-opacity:1;stroke-width:0.27288899" />
          <path
             style="fill:#ffffff;fill-opacity:1;stroke-width:0.27288899"
             d="m 745.68474,-47.850595 c -38.84011,-2.7e-5 -76.08945,7.386478 -103.55349,20.53455 -27.46407,13.148098 -42.89311,30.9807236 -42.89288,49.574873 0.0852,33.033784 48.32623,61.55756 115.80069,68.470223 -23.73429,-3.224503 -44.97662,-9.450625 -61.97605,-17.841277 -8.89825,-4.39203 -16.65888,-9.394243 -22.99602,-14.886966 -8.74607,-7.024079 -15.01074,-14.915886 -18.10536,-23.408905 -0.22579,-0.619072 -0.43355,-1.239599 -0.62323,-1.86137 -0.3303,-1.07741 -0.61179,-2.163524 -0.8392,-3.258714 -0.59193,-2.394638 -0.91607,-4.802293 -0.97102,-7.212991 0.0387,-5.032587 1.25037,-10.047949 3.61323,-14.9556788 0.80079,-1.7567539 1.73921,-3.4852504 2.80707,-5.1836637 0.0529,-0.08427 0.1061,-0.1685131 0.15967,-0.2527035 6.96191,-10.9209151 19.3167,-20.575243 35.36114,-28.297505 0.59487,-0.286305 1.19886,-0.567928 1.80404,-0.849048 25.49803,-12.53363 60.47679,-20.221019 99.09265,-20.220992 2.96698,0 5.92182,0.04972 8.862,0.142134 -5.15919,-0.295884 -10.34759,-0.460111 -15.54324,-0.491966 z m 23.61304,15.148427 c -32.92557,2.38e-4 -62.7161,6.530287 -84.05898,16.925581 -21.3433,10.3955055 -33.86904,24.4201153 -33.86923,39.23067 -8e-5,14.81066 12.52434,28.833021 33.8677,39.228632 4.04196,1.968686 8.38774,3.798041 12.99972,5.471478 C 676.73044,57.476033 664.252,41.610717 664.1848,24.859682 c -6e-5,-31.1310599 42.05308,-56.367759 93.92811,-56.3676 51.87484,0 93.92767,25.2366459 93.92761,56.3676 -0.007,25.395554 -28.31208,47.652251 -69.12808,54.357401 13.11881,-0.747421 25.83698,-2.552461 37.63335,-5.302514 27.95868,-12.993502 43.97669,-31.557701 44.05622,-51.059397 -0.036,-18.2272778 -14.0032,-35.69925 -38.82398,-48.566043 -17.1618,-4.517787 -36.5647,-6.976956 -56.48025,-6.991297 z"
             id="path6000" />
        </g>
        <g
           style="fill:#ffffff;fill-opacity:1;stroke:#0000ff;stroke-width:0;stroke-dasharray:none"
           transform="translate(239.4735,686.34815)"
           id="g6023">
          <path
             id="path6004"
             style="font-style:normal;font-weight:bold;font-size:51.48329926px;font-family:Helvetica-CondensedBold;-inkscape-font-specification:'Helvetica-CondensedBold Bold Italic';text-align:center;text-anchor:middle;fill:#ffffff;fill-opacity:1;stroke:#0000ff;stroke-width:0;stroke-dasharray:none"
             d="m 321.07631,158.24064 h -5.45897 q 0.29457,-2.53169 0.27946,-4.31326 -0.0115,-1.81281 -0.60842,-2.93801 -0.59694,-1.1252 -2.01222,-1.1252 -1.55682,0 -2.50215,1.00018 -0.92511,1.00017 -1.20514,3.40685 -0.19275,1.65654 0.0973,2.813 0.29002,1.15644 0.75591,1.84407 0.22648,0.31255 1.32727,1.62528 1.12102,1.31273 1.77819,2.09412 0.65716,0.78139 1.98807,2.37541 1.08058,1.31273 2.15839,3.34433 1.10166,2.00036 1.62513,4.62582 0.54369,2.62546 0.17638,5.78227 -0.76371,6.56365 -3.74603,10.12677 -2.95847,3.53187 -7.24476,3.53187 -3.31583,0 -5.19103,-1.78157 -1.85135,-1.81281 -2.40317,-5.06339 -0.55183,-3.25056 -0.0354,-7.68885 l 0.38912,-3.34433 h 5.7218 l -0.31275,2.68797 q -0.44005,3.78192 0.11776,5.93854 0.56144,2.12538 2.54285,2.12538 1.69834,0 2.76251,-1.50026 1.06417,-1.50027 1.32602,-3.75066 0.21456,-1.84407 -0.16084,-3.6569 -0.3754,-1.81281 -1.21497,-2.93801 -0.26327,-0.34381 -1.75432,-2.12538 -1.47084,-1.78155 -2.72451,-3.34433 -1.23345,-1.56277 -1.72886,-2.34416 -1.25047,-1.93784 -1.91911,-4.53204 -0.68522,-2.62546 -0.29972,-5.93854 0.46913,-4.03196 1.76692,-6.84496 1.31801,-2.81299 3.48691,-4.25074 2.19276,-1.469 5.16487,-1.469 4.00325,0 5.65328,2.50044 1.67025,2.50043 1.77363,5.78226 0.10703,3.25056 -0.36938,7.34503 z" />
          <path
             id="path6006"
             style="font-style:normal;font-weight:bold;font-size:51.48329926px;font-family:Helvetica-CondensedBold;-inkscape-font-specification:'Helvetica-CondensedBold Bold Italic';text-align:center;text-anchor:middle;fill:#ffffff;fill-opacity:1;stroke:#0000ff;stroke-width:0;stroke-dasharray:none"
             d="m 329.35351,184.93282 -0.7528,6.46988 q -1.79173,0.28131 -2.72178,0.28131 -4.81198,0 -4.13192,-5.84478 l 2.82573,-24.2855 h -2.16337 l 0.69825,-6.00105 h 2.16337 l 1.14556,-9.84549 h 5.21635 l -1.14556,9.84549 h 2.28468 l -0.69825,6.00105 h -2.28468 l -2.59298,22.28515 q -0.0335,1.15645 1.40205,1.15645 0.26647,-0.0312 0.44843,-0.0312 0.1856,-0.0312 0.30691,-0.0312 z" />
          <path
             id="path6008"
             style="font-style:normal;font-weight:bold;font-size:51.48329926px;font-family:Helvetica-CondensedBold;-inkscape-font-specification:'Helvetica-CondensedBold Bold Italic';text-align:center;text-anchor:middle;fill:#ffffff;fill-opacity:1;stroke:#0000ff;stroke-width:0;stroke-dasharray:none"
             d="m 338.34056,191.27768 1.14704,-9.85816 h -6.23581 l -1.14704,9.85816 z" />
          <path
             id="path6010"
             style="font-style:normal;font-weight:bold;font-size:51.48329926px;font-family:Helvetica-CondensedBold;-inkscape-font-specification:'Helvetica-CondensedBold Bold Italic';text-align:center;text-anchor:middle;fill:#ffffff;fill-opacity:1;stroke:#0000ff;stroke-width:0;stroke-dasharray:none"
             d="m 359.26635,191.27768 h -5.64094 l 5.53508,-47.57083 h 9.03762 l 0.38165,33.03704 7.76637,-33.03704 h 9.07806 l -5.53508,47.57083 h -5.70159 l 5.39351,-43.22632 -11.13553,43.22632 h -3.47757 l -1.17747,-43.22632 z" />
          <path
             id="path6012"
             style="font-style:normal;font-weight:bold;font-size:51.48329926px;font-family:Helvetica-CondensedBold;-inkscape-font-specification:'Helvetica-CondensedBold Bold Italic';text-align:center;text-anchor:middle;fill:#ffffff;fill-opacity:1;stroke:#0000ff;stroke-width:0;stroke-dasharray:none"
             d="m 400.59724,191.24643 h -4.97373 q -0.0999,-0.53135 -0.0592,-1.75032 0.0407,-1.21895 0.0839,-1.93783 -2.45534,4.59455 -5.22526,4.59455 -3.17429,0 -4.37225,-2.56294 -1.17773,-2.56295 -0.53767,-8.06392 0.33458,-2.8755 1.17752,-4.90711 0.86315,-2.0316 2.0709,-3.37559 1.20773,-1.34399 2.43815,-2.18788 1.23042,-0.8439 3.63832,-2.2504 1.5721,-1.00017 2.33909,-2.0316 0.79086,-1.06269 0.96906,-2.5942 0.26912,-2.31291 -0.5514,-2.90677 -0.52611,-0.34381 -1.67856,-0.34381 -1.13223,0 -1.80787,0.59386 -0.65543,0.59386 -0.98855,1.71905 -0.3331,1.1252 -0.54403,2.93801 h -5.01416 q 0.44731,-3.84441 1.42568,-6.34486 1.00222,-2.5317 2.89374,-3.84443 1.91538,-1.34397 4.92792,-1.34397 2.58796,0 4.03931,0.90641 1.47157,0.9064 2.02123,2.43792 0.56988,1.53152 0.55546,3.21932 0.006,1.6878 -0.25604,3.93818 l -2.46569,21.19121 q -0.32003,2.75049 -0.10593,4.90712 z m -3.53615,-18.78455 q -1.57531,1.37525 -2.86231,2.5317 -1.26679,1.15645 -2.16922,2.65672 -0.8822,1.50026 -1.14405,3.75066 -0.26184,2.25039 0.12928,3.40683 0.39113,1.15646 1.78619,1.15646 1.67813,0 2.4127,-1.96909 0.73821,-2.00036 1.12007,-5.28218 z" />
          <path
             id="path6014"
             style="font-style:normal;font-weight:bold;font-size:51.48329926px;font-family:Helvetica-CondensedBold;-inkscape-font-specification:'Helvetica-CondensedBold Bold Italic';text-align:center;text-anchor:middle;fill:#ffffff;fill-opacity:1;stroke:#0000ff;stroke-width:0;stroke-dasharray:none"
             d="m 414.30004,155.55268 -0.65011,6.28234 q 1.19627,-3.1568 2.66641,-4.8446 1.47378,-1.71905 3.51904,-2.09412 l -1.13465,9.75171 q -0.41368,-0.0937 -0.89893,-0.0937 -1.63768,0 -2.73021,0.87515 -1.80135,1.40649 -2.27819,5.15714 l -2.4075,20.69114 h -5.21635 l 4.15676,-35.72501 z" />
          <path
             id="path6016"
             style="font-style:normal;font-weight:bold;font-size:51.48329926px;font-family:Helvetica-CondensedBold;-inkscape-font-specification:'Helvetica-CondensedBold Bold Italic';text-align:center;text-anchor:middle;fill:#ffffff;fill-opacity:1;stroke:#0000ff;stroke-width:0;stroke-dasharray:none"
             d="m 421.31796,155.55268 h 5.62071 l -0.20669,28.53624 6.39352,-28.53624 h 5.41853 l -9.81909,36.25634 q -1.30085,4.75084 -1.66509,5.9698 -0.36787,1.25021 -1.10854,2.75048 -0.74068,1.50026 -1.8866,2.31291 -1.12569,0.81264 -2.74316,0.81264 -1.07157,0 -2.60133,-0.40632 l 0.72534,-6.40738 q 0.54227,0.0312 0.95957,0.0937 0.43753,0.0625 0.47797,0.0625 1.65791,0 1.85429,-1.68779 0.23639,-2.03161 0.0457,-4.5633 z" />
          <path
             id="path6019"
             style="font-style:normal;font-weight:bold;font-size:51.48329926px;font-family:Helvetica-CondensedBold;-inkscape-font-specification:'Helvetica-CondensedBold Bold Italic';text-align:center;text-anchor:middle;fill:#ffffff;fill-opacity:1;stroke:#0000ff;stroke-width:0;stroke-dasharray:none"
             d="m 445.08963,179.49437 h 5.25679 q -0.11319,0.6251 -0.24775,1.78156 -0.36003,3.09429 0.19241,3.90693 0.55606,0.78139 1.70851,0.78139 0.99071,0 1.71727,-1.03143 0.75041,-1.06269 0.98316,-3.06304 0.10865,-1.28147 -0.35722,-1.96909 -0.44566,-0.68763 -1.80043,-2.25039 l -2.5312,-3.0943 q -1.8061,-2.37541 -2.59605,-4.96962 -0.78631,-2.62546 -0.36081,-6.28235 0.48004,-4.12573 2.78395,-6.37612 2.28732,-2.28164 6.12881,-2.28164 3.45735,0 4.97516,2.5942 1.67999,2.93801 0.95992,9.1266 h -5.29722 q 0.34912,-3.00053 -0.0954,-4.21949 -0.44086,-1.25022 -1.75505,-1.25022 -0.95027,0 -1.64774,0.78139 -0.69383,0.75013 -0.86112,2.18787 -0.1491,1.28148 0.297,2.31291 0.22123,0.53135 1.11985,1.84408 l 3.8912,4.43827 q 1.04741,1.25023 1.95257,3.37559 0.929,2.09412 0.85393,3.78192 -0.0828,1.4065 -0.16642,2.12537 -0.55278,4.75083 -2.63908,7.56382 -2.09359,2.87551 -6.60229,2.87551 -1.61747,0 -3.16991,-0.90641 -1.55609,-0.87515 -2.50575,-3.31307 -0.95896,-2.5317 -0.48982,-6.56365 0.0582,-0.5001 0.17501,-1.15646 0.11683,-0.65637 0.12774,-0.75013 z" />
          <rect
             y="146.53712"
             x="440.53125"
             height="17.481398"
             width="4.9609375"
             id="rect6021"
             style="fill:#ffffff;fill-opacity:1;stroke:#0000ff;stroke-width:0;stroke-dasharray:none" />
        </g>
      </g>
    </g>
  </g>
</svg>
