<?xml version="1.0" encoding="UTF-8" standalone="no"?>
<!-- Created with Inkscape (http://www.inkscape.org/) -->

<svg
   width="1705.4655mm"
   height="1301.22mm"
   viewBox="0 0 1705.4655 1301.22"
   version="1.1"
   id="svg1"
   xml:space="preserve"
   xmlns="http://www.w3.org/2000/svg"
   xmlns:svg="http://www.w3.org/2000/svg"><defs
     id="defs1" /><g
     id="layer1"
     transform="translate(1649.8254,1478.1365)"><path
       id="rect1"
       style="opacity:1;fill:#ffffff;fill-opacity:1;stroke-width:26.7536"
       d="M -792.95936 -1478.1365 C -965.25737 -1478.1366 -1130.4997 -1409.6908 -1252.3329 -1287.8577 C -1374.1657 -1166.0245 -1442.6118 -1000.7821 -1442.6117 -828.48416 C -1442.4455 -764.06224 -1432.6979 -700.02273 -1413.6889 -638.46889 C -1356.9354 -624.41128 -1297.084 -610.41979 -1236.6599 -596.9231 L -1236.7927 -596.90398 C -1224.5534 -594.38642 -1213.5881 -592.17587 -1204.4831 -589.78969 C -1212.2804 -606.02855 -1231.3088 -646.16972 -1239.0127 -667.25473 L -1238.8267 -667.81335 C -1257.833 -719.20938 -1267.9122 -773.54899 -1268.3986 -828.48416 C -1267.856 -892.77965 -1254.2777 -956.29773 -1228.4847 -1015.1952 L -1228.4847 -675.26148 C -1222.5865 -661.53297 -1211.2635 -636.3957 -1198.24 -614.22076 L -1198.24 -1075.4329 C -1195.7958 -1079.0247 -1193.3026 -1082.5828 -1190.7609 -1086.1062 C -1190.4224 -950.25217 -1190.9826 -614.3577 -1190.9826 -614.3577 C -1120.1815 -608.42325 -963.61668 -647.48132 -865.89392 -636.25714 C -860.55072 -690.4239 -855.30744 -747.63442 -854.34992 -806.18423 C -959.78683 -800.14758 -1059.1217 -785.56116 -1141.751 -784.60312 L -1141.751 -865.66122 L -1141.751 -868.77163 L -1141.751 -949.82973 C -1060.6191 -948.88801 -963.37794 -934.7957 -860.07361 -928.56643 C -866.71114 -1014.6172 -876.74638 -1117.7162 -878.35053 -1129.7526 L -878.34432 -1129.7516 L -797.28674 -1129.7516 L -794.17582 -1129.7516 L -713.11772 -1129.7516 C -714.73096 -1117.6408 -724.8746 -1013.3652 -731.50523 -927.00322 C -640.75247 -931.7062 -465.99624 -947.76546 -449.71777 -949.8287 L -449.71777 -868.77111 L -449.71777 -865.66019 L -449.71777 -784.60209 C -466.30819 -786.70492 -648.04116 -803.41315 -737.13279 -807.7459 C -736.24189 -748.5272 -730.93346 -690.64887 -725.53298 -635.89695 C -628.05278 -648.32452 -468.90555 -608.36066 -397.36128 -614.35718 C -397.36128 -614.35718 -397.92836 -956.62272 -397.57522 -1089.5478 C -396.69347 -1088.3032 -395.81772 -1087.0543 -394.94799 -1085.8013 L -394.94799 -603.50978 C -383.39177 -621.26313 -372.42752 -643.49083 -364.69196 -660.39365 L -364.69196 -1030.7623 C -334.252 -967.63702 -318.14345 -898.56259 -317.51964 -828.48416 C -318.16027 -773.4195 -328.50798 -719.0479 -347.70436 -667.66762 L -347.5669 -667.25473 C -356.33451 -643.25905 -379.33951 -595.47942 -383.97502 -585.90311 C -375.00247 -587.89412 -366.18339 -589.82001 -356.65937 -591.83918 L -356.0992 -591.58493 C -294.07824 -605.21145 -232.1412 -619.53113 -173.23853 -633.98958 C -153.44319 -696.92492 -143.35003 -762.50908 -143.3065 -828.48416 C -143.30638 -1000.7822 -211.75211 -1166.025 -333.58533 -1287.8582 C -455.41856 -1409.6913 -620.66123 -1478.1368 -792.95936 -1478.1365 z M -816.37912 -1442.7159 C -810.03022 -1442.3655 -804.47081 -1442.125 -799.70571 -1442.0126 C -795.73472 -1441.9326 -790.27702 -1441.9046 -783.32325 -1441.9046 C -783.40355 -1439.0257 -783.64408 -1436.9368 -784.06946 -1435.6559 C -787.6483 -1435.5484 -790.10053 -1434.821 -791.42457 -1433.4565 C -792.64984 -1432.0947 -793.31348 -1429.2785 -793.41514 -1425.0095 L -793.7898 -1409.0689 L -755.23039 -1408.1428 L -754.84282 -1424.0835 C -754.76252 -1426.9627 -755.00306 -1429.1476 -755.57559 -1430.651 C -756.03575 -1432.152 -756.91056 -1433.2194 -758.18939 -1433.8446 C -759.3665 -1434.468 -761.18769 -1434.9121 -763.6645 -1435.1717 C -764.02567 -1436.6698 -764.1727 -1438.7541 -764.10582 -1441.4343 C -757.75722 -1441.0839 -752.25069 -1440.8564 -747.58486 -1440.744 C -743.51462 -1440.664 -738.00346 -1440.6103 -731.04944 -1440.6365 C -731.10294 -1438.0549 -731.40551 -1435.9779 -731.94861 -1434.4012 C -735.52717 -1434.2937 -737.92648 -1433.5561 -739.15127 -1432.1889 C -740.37659 -1430.8272 -741.04018 -1428.0108 -741.14185 -1423.7414 L -742.11026 -1383.0948 C -742.21729 -1378.8259 -741.69309 -1375.9303 -740.53465 -1374.4126 C -739.27724 -1372.9919 -736.91173 -1372.1518 -733.44206 -1371.8681 C -732.97387 -1370.6642 -732.77606 -1368.5692 -732.8483 -1365.5914 C -739.59418 -1365.9527 -745.06201 -1366.1828 -749.23128 -1366.2818 C -754.19512 -1366.4156 -759.75892 -1366.4423 -765.91863 -1366.3893 C -765.83833 -1369.3671 -765.54651 -1371.4452 -765.01946 -1372.6246 C -761.54016 -1372.7321 -759.17955 -1373.4676 -757.95477 -1374.8374 C -756.62783 -1376.2955 -755.91341 -1379.1529 -755.81175 -1383.4224 L -755.38387 -1401.5892 C -774.4444 -1402.0467 -787.30689 -1402.116 -793.97015 -1401.7763 L -794.38511 -1384.3567 C -794.49214 -1380.088 -793.96742 -1377.1918 -792.80898 -1375.674 C -791.55157 -1374.2535 -789.13336 -1373.4002 -785.56446 -1373.1166 C -785.19794 -1371.8165 -785.05359 -1369.7321 -785.12314 -1366.8539 C -791.86902 -1367.215 -797.32288 -1367.4319 -801.49217 -1367.5308 C -806.45599 -1367.6646 -812.0198 -1367.6912 -818.17952 -1367.6383 C -818.09922 -1370.6165 -817.80525 -1372.6944 -817.28087 -1373.8736 C -814.79547 -1374.0074 -812.95625 -1374.3736 -811.75046 -1374.9381 C -810.44488 -1375.5026 -809.52973 -1376.5167 -808.9992 -1377.9938 C -808.4668 -1379.4707 -808.15935 -1381.7069 -808.08711 -1384.6854 L -807.1187 -1425.3315 C -807.0384 -1428.2106 -807.22554 -1430.4113 -807.69902 -1431.9124 C -808.15919 -1433.4132 -809.02057 -1434.4648 -810.29938 -1435.0921 C -811.47655 -1435.7155 -813.31165 -1436.1597 -815.78845 -1436.4191 C -816.2513 -1437.8211 -816.44909 -1439.9163 -816.38222 -1442.6958 L -816.37912 -1442.7159 z M -849.4758 -1439.697 C -848.91101 -1434.3571 -847.54744 -1428.0357 -845.35719 -1420.7478 C -847.27275 -1419.5305 -849.59429 -1418.7036 -852.33868 -1418.2595 C -853.29915 -1422.9323 -855.13616 -1426.2031 -857.85514 -1428.0755 C -860.47695 -1429.9644 -864.23562 -1430.515 -869.13662 -1429.7209 L -875.60702 -1428.6698 L -867.42251 -1378.2351 C -866.92757 -1375.1964 -866.31208 -1372.9756 -865.58438 -1371.5849 C -864.77374 -1370.3087 -863.63676 -1369.4901 -862.1696 -1369.1235 C -860.6045 -1368.773 -858.33976 -1368.749 -855.36743 -1369.016 C -854.6852 -1367.9191 -854.10482 -1365.9008 -853.62594 -1362.9606 C -860.91117 -1361.9787 -866.85352 -1361.1092 -871.46051 -1360.3628 C -877.14533 -1359.4398 -883.20338 -1358.3451 -889.64079 -1357.0994 C -890.11968 -1360.0399 -890.21588 -1362.1484 -889.91623 -1363.404 C -887.00758 -1364.0782 -884.86204 -1364.819 -883.48716 -1365.6431 C -882.01303 -1366.4858 -881.09819 -1367.6981 -880.74986 -1369.2656 C -880.39939 -1370.8307 -880.46927 -1373.0854 -880.93745 -1376.0259 L -889.12144 -1426.4471 L -895.1495 -1425.4787 C -899.07052 -1424.842 -902.03011 -1423.7959 -904.01149 -1422.3678 C -905.91099 -1421.0541 -907.19119 -1419.3983 -907.86914 -1417.3769 C -908.546 -1415.3543 -908.9577 -1412.5687 -909.08612 -1409.0265 C -912.22267 -1408.5155 -914.59286 -1408.5823 -916.2061 -1409.2404 C -915.81817 -1416.1444 -916.126 -1422.6434 -917.10527 -1428.7204 C -911.97659 -1429.3518 -900.73419 -1431.0747 -883.38536 -1433.8911 C -865.74408 -1436.7558 -854.44407 -1438.6891 -849.4758 -1439.697 z M -665.91801 -1428.8635 C -662.00855 -1428.8095 -657.94756 -1428.2856 -653.73788 -1427.3143 C -645.41566 -1425.3988 -638.42521 -1422.1618 -632.75156 -1417.595 C -627.07716 -1413.0281 -623.15532 -1407.4885 -620.98587 -1400.9769 C -618.69849 -1394.54 -618.39324 -1387.6352 -620.0867 -1380.2805 C -621.80161 -1372.8291 -625.10553 -1366.6671 -629.99979 -1361.7818 C -634.77559 -1356.971 -640.7674 -1353.7082 -647.98629 -1352.0072 C -655.08592 -1350.3805 -662.84898 -1350.5388 -671.26808 -1352.4785 C -679.5903 -1354.3941 -686.59473 -1357.6445 -692.26886 -1362.2113 C -697.94305 -1366.7782 -701.92536 -1372.2685 -704.21387 -1378.7054 C -706.40499 -1385.1199 -706.63528 -1392.061 -704.9177 -1399.5124 C -703.22419 -1406.867 -699.98349 -1412.9922 -695.18496 -1417.8999 C -690.29016 -1422.7852 -684.29779 -1426.0481 -677.19795 -1427.6745 C -673.58862 -1428.5252 -669.82596 -1428.9236 -665.91646 -1428.862 L -665.91801 -1428.8635 z M -663.13937 -1421.9229 C -668.63109 -1422.137 -673.53346 -1420.636 -677.86354 -1417.4296 C -683.61472 -1413.251 -687.48038 -1406.853 -689.46283 -1398.2401 C -690.95568 -1391.7564 -691.03318 -1385.7125 -689.67677 -1380.1011 C -688.29628 -1374.5867 -685.69275 -1369.9687 -681.86536 -1366.2343 C -678.03778 -1362.5001 -673.32096 -1359.9778 -667.70809 -1358.6859 L -667.69465 -1358.6859 C -659.85587 -1356.88 -653.06676 -1358.073 -647.31553 -1362.2526 C -641.46777 -1366.4091 -637.54157 -1372.8433 -635.53692 -1381.5527 C -634.08955 -1387.8431 -634.04896 -1393.7483 -635.42944 -1399.2628 C -636.78585 -1404.874 -639.42148 -1409.5946 -643.32405 -1413.4479 C -647.1297 -1417.2791 -651.8266 -1419.8427 -657.43946 -1421.1348 C -659.39784 -1421.5843 -661.30475 -1421.8518 -663.13524 -1421.9213 L -663.13937 -1421.9229 z M -977.56876 -1411.4848 L -933.24485 -1366.4834 C -929.70134 -1362.8664 -926.96916 -1360.5514 -925.04638 -1359.5288 C -923.0292 -1358.539 -921.04518 -1358.2741 -919.10153 -1358.7262 C -918.15177 -1357.4767 -917.20202 -1355.4357 -916.23969 -1352.6155 C -920.06274 -1351.5214 -924.93271 -1349.9642 -930.85326 -1347.9424 C -937.05556 -1345.8262 -942.0068 -1344.0358 -945.70145 -1342.5644 C -946.69667 -1345.4779 -947.13011 -1347.6786 -947.01507 -1349.1867 C -944.94969 -1350.206 -943.58085 -1351.0971 -942.89542 -1351.8543 C -942.149 -1352.7398 -941.948 -1353.695 -942.30114 -1354.7301 C -942.59009 -1355.5755 -943.55844 -1356.8816 -945.20433 -1358.6285 L -950.08517 -1363.7161 C -963.61752 -1359.0957 -974.21587 -1355.222 -981.85532 -1352.0889 L -982.14574 -1347.9 C -982.3464 -1345.4172 -982.24474 -1343.5642 -981.82793 -1342.3427 C -980.92901 -1339.7101 -978.48115 -1338.8717 -974.50021 -1339.8116 C -973.3589 -1338.3107 -972.36617 -1336.2923 -971.49988 -1333.7556 C -975.13517 -1332.7256 -979.06401 -1331.4819 -983.29296 -1330.037 C -986.95816 -1328.7849 -990.26315 -1327.5596 -993.20605 -1326.3458 C -993.97655 -1328.6011 -994.41077 -1330.8021 -994.51966 -1332.9681 C -992.58055 -1334.0516 -991.27176 -1335.4426 -990.59329 -1337.143 C -989.94746 -1338.9381 -989.389 -1342.2237 -988.92 -1347.0003 L -983.01701 -1408.9934 C -981.36016 -1409.9806 -979.54313 -1410.8101 -977.56928 -1411.4817 L -977.56876 -1411.4848 z M -580.59041 -1405.4484 L -580.59041 -1405.4458 L -580.58834 -1405.4458 C -574.09179 -1402.4536 -569.06591 -1400.193 -565.50451 -1398.6711 C -561.76061 -1397.0714 -556.64273 -1394.9985 -550.17262 -1392.4497 C -551.34176 -1389.7104 -552.44924 -1387.7627 -553.49077 -1386.5881 C -556.76487 -1387.7706 -559.2944 -1387.9338 -561.06653 -1387.0723 C -562.70919 -1386.2616 -564.36656 -1383.8926 -566.04401 -1379.9657 L -581.2653 -1344.3519 C -582.51469 -1341.4296 -583.19449 -1339.0731 -583.3122 -1337.2867 C -583.3925 -1335.5933 -582.82245 -1334.1134 -581.63995 -1332.8492 C -580.32105 -1331.6372 -578.15569 -1330.3904 -575.14216 -1329.1022 L -574.32619 -1328.7436 C -570.03437 -1326.9111 -566.48351 -1325.8782 -563.66689 -1325.6466 C -560.71971 -1325.4593 -558.12481 -1325.9785 -555.88339 -1327.1824 C -553.51301 -1328.4371 -550.91274 -1330.458 -548.09937 -1333.2518 C -545.82798 -1331.7403 -544.24657 -1329.8817 -543.35754 -1327.6666 C -546.83493 -1324.077 -550.43172 -1319.0725 -554.14086 -1312.666 L -578.32129 -1323.1728 C -591.47093 -1328.7916 -602.10267 -1333.2225 -610.21651 -1336.4733 C -609.00725 -1339.3041 -607.90268 -1341.2654 -606.89888 -1342.3489 C -604.63018 -1341.5945 -602.78957 -1341.2309 -601.36847 -1341.271 C -599.94785 -1341.297 -598.68855 -1341.9613 -597.60797 -1343.2347 C -596.43615 -1344.4626 -595.23511 -1346.5343 -593.98597 -1349.456 L -578.58433 -1385.4848 C -577.45264 -1388.1333 -576.88029 -1390.2542 -576.84283 -1391.858 C -576.70906 -1393.4232 -577.1235 -1394.7425 -578.07325 -1395.7984 C -578.93472 -1396.8152 -580.47314 -1397.8904 -582.6771 -1399.0473 C -582.40956 -1400.6659 -581.7221 -1402.8009 -580.59041 -1405.4484 z M -1053.9811 -1402.4982 C -1052.421 -1397.4556 -1049.1578 -1390.4732 -1044.1792 -1381.5388 C -1045.6525 -1379.6955 -1047.7254 -1378.019 -1050.4144 -1376.5205 C -1055.5955 -1385.0011 -1060.6938 -1389.9481 -1065.6915 -1391.3687 C -1070.738 -1392.8749 -1076.3821 -1391.8906 -1082.6275 -1388.4102 C -1089.6535 -1384.4945 -1094.5496 -1379.6137 -1097.3098 -1373.7553 C -1100.07 -1367.897 -1101.0283 -1361.6636 -1100.1995 -1355.0773 C -1099.3701 -1348.4914 -1097.168 -1341.9885 -1093.5911 -1335.5695 C -1089.2401 -1327.7631 -1084.0028 -1321.4278 -1077.8717 -1316.5458 C -1071.702 -1311.7996 -1065.08 -1309.0074 -1058.0186 -1308.1681 C -1051.0054 -1307.4163 -1044.1154 -1308.9167 -1037.3496 -1312.6887 C -1033.2729 -1314.9602 -1029.4517 -1318.0085 -1025.8883 -1321.8137 C -1022.3247 -1325.6189 -1019.3401 -1329.7249 -1016.9157 -1334.1458 C -1016.154 -1334.012 -1015.316 -1333.6241 -1014.3991 -1332.9981 C -1013.4432 -1332.5085 -1012.7503 -1331.9816 -1012.3258 -1331.4225 C -1015.3446 -1324.3966 -1018.8585 -1318.5725 -1022.8745 -1313.947 C -1026.8032 -1309.3699 -1031.9812 -1305.2891 -1038.4002 -1301.7116 C -1046.3803 -1297.264 -1054.5916 -1295.1749 -1063.0509 -1295.4624 C -1071.4716 -1295.8851 -1079.3927 -1298.5791 -1086.8169 -1303.5363 C -1094.1538 -1308.5416 -1100.3216 -1315.5202 -1105.301 -1324.4544 C -1110.6189 -1333.9957 -1113.1308 -1343.2158 -1112.8633 -1352.1189 C -1112.5083 -1361.0701 -1109.9798 -1369.0764 -1105.2736 -1376.1334 C -1100.4799 -1383.2387 -1094.2701 -1388.912 -1086.637 -1393.166 C -1081.3456 -1396.1152 -1076.1254 -1398.278 -1070.9863 -1399.6643 C -1065.8957 -1401.1384 -1060.2305 -1402.0852 -1053.9811 -1402.4982 z M -978.52271 -1393.5256 C -978.46921 -1390.9197 -978.60811 -1388.2413 -978.93715 -1385.5065 C -979.202 -1382.898 -979.3736 -1381.2727 -979.4627 -1380.6127 L -981.24605 -1359.5427 L -954.88126 -1368.5432 L -969.41163 -1383.4193 C -973.55577 -1387.5658 -976.58815 -1390.9331 -978.52271 -1393.5256 z M -497.30402 -1366.58 C -491.94098 -1363.1646 -487.20427 -1360.234 -483.10592 -1357.8007 C -479.69028 -1355.7729 -474.94414 -1353.0773 -468.86544 -1349.6994 C -470.43589 -1347.0534 -471.75409 -1345.2309 -472.80577 -1344.2382 C -475.98117 -1345.8942 -478.47912 -1346.4482 -480.29885 -1345.9105 C -482.03249 -1345.3246 -483.98061 -1343.1952 -486.16103 -1339.5233 L -506.47038 -1305.3191 C -508.65081 -1301.6474 -509.61023 -1298.8712 -509.34618 -1296.9822 C -508.94755 -1295.1282 -507.25943 -1293.1991 -504.28602 -1291.2032 C -504.70606 -1289.7184 -505.66906 -1287.6956 -507.1892 -1285.1343 C -512.89415 -1288.7524 -517.53903 -1291.632 -521.1253 -1293.7612 C -525.39464 -1296.2948 -530.23266 -1299.0566 -535.62829 -1302.0289 C -534.05785 -1304.6748 -532.70018 -1306.4651 -531.56342 -1307.4069 C -529.32686 -1306.3098 -527.54221 -1305.7054 -526.21336 -1305.609 C -524.79815 -1305.4752 -523.50143 -1305.9114 -522.31438 -1306.9361 C -521.12651 -1307.9633 -519.76992 -1309.7521 -518.24951 -1312.3135 L -497.95411 -1346.5177 C -496.48533 -1348.9924 -495.57859 -1350.9974 -495.24471 -1352.5318 C -494.91028 -1354.0647 -495.13739 -1355.4251 -495.94803 -1356.5966 C -496.6677 -1357.7176 -498.04808 -1358.9881 -500.08163 -1360.4259 C -499.74721 -1361.9589 -498.82445 -1364.0165 -497.30298 -1366.5785 L -497.30402 -1366.58 z M -438.51898 -1318.4677 C -435.07605 -1318.4672 -431.60247 -1317.9835 -428.10876 -1317.0151 C -421.04393 -1315.022 -414.49396 -1311.5888 -408.46293 -1306.7289 C -404.36481 -1303.4264 -400.86146 -1299.958 -397.92765 -1296.3187 C -394.93182 -1292.7567 -392.11424 -1288.6482 -389.49458 -1283.9861 C -392.6354 -1281.6719 -396.56574 -1277.5714 -401.30109 -1271.6954 C -403.33169 -1272.185 -405.54025 -1273.3999 -407.93738 -1275.3318 C -404.11938 -1280.5444 -402.67848 -1285.1734 -403.60999 -1289.24 C -404.4019 -1293.3218 -407.16105 -1297.2738 -411.87771 -1301.0744 C -419.60973 -1307.3052 -427.11973 -1309.843 -434.41277 -1308.706 C -441.70577 -1307.5689 -447.84371 -1303.9138 -452.82818 -1297.7289 C -456.75375 -1292.8576 -459.30645 -1287.642 -460.47371 -1282.0787 C -461.50106 -1276.5302 -461.01687 -1271.1017 -459.0371 -1265.8063 C -456.97706 -1260.4484 -453.31733 -1255.6506 -448.05948 -1251.4139 C -444.88944 -1248.8589 -441.36908 -1246.5949 -437.48338 -1244.6117 C -433.53534 -1242.7068 -429.60892 -1241.3295 -425.70374 -1240.4781 C -425.54321 -1239.7184 -425.57006 -1238.7848 -425.83758 -1237.6995 C -426.02487 -1236.6908 -426.3194 -1235.8506 -426.73675 -1235.1684 C -433.06073 -1236.1823 -438.65772 -1237.6322 -443.52074 -1239.5092 C -448.32109 -1241.4649 -453.15242 -1244.4043 -458.02373 -1248.3299 C -464.36402 -1253.439 -468.9843 -1259.2657 -471.87663 -1265.8053 C -474.76897 -1272.3445 -475.7689 -1279.0192 -474.87645 -1285.8242 C -473.98555 -1292.6293 -471.16585 -1298.9714 -466.42942 -1304.8479 C -461.38262 -1311.1104 -455.49621 -1315.1614 -448.77468 -1317.014 C -445.38258 -1317.9798 -441.97271 -1318.4667 -438.52983 -1318.4667 L -438.51898 -1318.4677 z M -792.95936 -1303.9239 C -653.92581 -1303.7898 -521.91653 -1242.804 -431.68942 -1137.024 C -550.94618 -1110.2936 -744.55233 -1192.8374 -794.17582 -1136.2349 C -807.86134 -1151.8468 -832.49821 -1156.8779 -863.51009 -1156.5303 C -944.30492 -1155.6261 -1068.3006 -1118.3277 -1154.5884 -1136.6633 C -1064.3474 -1242.6724 -932.17628 -1303.8036 -792.95936 -1303.9223 L -792.95936 -1303.9239 z M -1171.7316 -1303.1932 L -1171.7316 -1303.187 C -1164.6157 -1297.0481 -1159.7595 -1293.1482 -1157.1599 -1291.4905 C -1157.6647 -1289.5455 -1158.9402 -1287.6335 -1160.9896 -1285.7534 C -1164.1021 -1288.5577 -1167.6035 -1289.7975 -1171.483 -1289.472 C -1175.2892 -1289.2045 -1180.0065 -1286.4985 -1185.6403 -1281.3289 L -1194.1979 -1273.4627 L -1175.6719 -1253.2774 L -1170.1834 -1258.3101 C -1166.3057 -1261.8685 -1164.0389 -1264.7575 -1163.3812 -1266.9783 C -1162.6498 -1269.2657 -1163.3222 -1271.6207 -1165.3997 -1274.0291 C -1164.26 -1276.0196 -1162.8142 -1277.8096 -1161.0589 -1279.421 C -1159.5267 -1277.4573 -1156.7663 -1274.3225 -1152.8046 -1270.0061 C -1148.5077 -1265.3237 -1145.5225 -1262.2089 -1143.832 -1260.6604 C -1145.8075 -1258.8465 -1147.6191 -1257.5885 -1149.2658 -1256.8859 C -1151.7009 -1259.0984 -1154.0851 -1259.9329 -1156.4271 -1259.4031 C -1158.6961 -1258.9376 -1161.7709 -1256.9341 -1165.6488 -1253.3755 L -1171.1373 -1248.3428 L -1160.5612 -1236.8127 C -1158.4126 -1234.4718 -1156.5561 -1232.8838 -1154.9755 -1232.043 C -1153.39 -1231.342 -1151.7639 -1231.264 -1150.1226 -1231.8285 C -1148.4764 -1232.5322 -1146.4545 -1233.9962 -1144.0397 -1236.2117 L -1143.3762 -1236.8189 C -1139.1328 -1240.7132 -1136.2215 -1244.0569 -1134.6248 -1246.87 C -1132.9554 -1249.75 -1132.2062 -1252.3946 -1132.3846 -1254.792 C -1132.5639 -1257.3283 -1133.4072 -1260.4594 -1134.9287 -1264.1795 C -1132.6175 -1265.6266 -1130.2633 -1266.3009 -1127.8779 -1266.1965 C -1126.0394 -1261.5491 -1122.9663 -1256.219 -1118.6563 -1250.2005 L -1139.9475 -1230.8725 C -1150.4833 -1221.2042 -1158.9024 -1213.3413 -1165.2064 -1207.2864 C -1167.2878 -1209.5552 -1168.6139 -1211.3742 -1169.1881 -1212.7341 C -1167.4935 -1214.5587 -1166.4006 -1216.093 -1165.9252 -1217.3374 C -1165.3775 -1218.6484 -1165.4659 -1220.0609 -1166.1738 -1221.5682 C -1166.882 -1223.0744 -1168.311 -1224.9928 -1170.4598 -1227.3332 L -1196.9492 -1256.2007 C -1198.8963 -1258.3222 -1200.5907 -1259.7226 -1202.0367 -1260.4175 C -1203.41 -1261.1799 -1204.7756 -1261.3484 -1206.129 -1260.9151 C -1207.4097 -1260.5485 -1208.9949 -1259.6281 -1210.8853 -1258.1639 C -1212.2586 -1258.9264 -1213.9451 -1260.406 -1215.9589 -1262.6019 C -1210.5568 -1267.2898 -1204.7445 -1272.49 -1198.5253 -1278.1968 C -1185.0631 -1290.5509 -1176.1336 -1298.8842 -1171.7316 -1303.1932 z M -321.48788 -1243.7172 L -321.48788 -1243.7157 L -321.48736 -1243.7157 C -319.75372 -1243.7957 -317.99968 -1243.6887 -316.23393 -1243.3705 C -309.17102 -1242.1104 -302.77611 -1237.8627 -297.05836 -1230.61 C -294.04563 -1226.7888 -291.66337 -1222.7237 -289.91047 -1218.4154 C -288.08057 -1214.1686 -287.05322 -1210.3616 -286.81351 -1207.0099 C -293.75362 -1201.5384 -298.71923 -1197.25 -301.70355 -1194.1383 C -303.75823 -1195.3021 -305.82066 -1197.2112 -307.91093 -1199.862 C -302.37721 -1205.9953 -299.34052 -1211.0481 -298.80037 -1215.0146 C -298.18236 -1219.0427 -299.34855 -1222.9266 -302.29783 -1226.6697 C -305.55642 -1230.8026 -309.12693 -1233.2418 -312.99899 -1233.9829 C -316.871 -1234.7239 -320.64287 -1233.6515 -324.30786 -1230.7619 C -327.34922 -1228.3647 -329.3403 -1225.5128 -330.29406 -1222.2317 C -331.18496 -1218.8725 -331.44755 -1215.5207 -331.06765 -1212.1527 C -330.62621 -1208.7065 -329.81829 -1204.1465 -328.6492 -1198.4931 C -327.20718 -1192.1707 -326.31042 -1186.9452 -325.95272 -1182.8016 C -325.5327 -1178.5806 -325.97972 -1174.3482 -327.3361 -1170.1238 C -328.68448 -1165.8997 -331.47625 -1162.1347 -335.68701 -1158.8149 C -339.74202 -1155.6178 -344.25347 -1153.6391 -349.22158 -1152.8835 C -354.05061 -1152.1104 -359.11347 -1152.9105 -364.416 -1155.3185 C -369.57892 -1157.6969 -374.49503 -1161.8482 -379.16756 -1167.7746 C -382.73355 -1172.2976 -385.3479 -1176.8143 -387.00636 -1181.3236 C -388.58749 -1185.8944 -389.72201 -1191.2682 -390.40718 -1197.4301 C -385.48697 -1200.1713 -379.66622 -1204.1847 -372.96019 -1209.4718 C -371.07674 -1208.0458 -369.18373 -1206.1236 -367.27785 -1203.7067 C -373.27035 -1198.4763 -376.79214 -1193.1697 -377.85394 -1187.7801 C -378.85453 -1182.3125 -376.98993 -1176.5723 -372.2548 -1170.5677 C -368.25865 -1165.499 -364.21926 -1162.6091 -360.12996 -1161.9129 C -355.90106 -1161.1986 -351.96051 -1162.2982 -348.29554 -1165.1897 C -345.25418 -1167.5868 -343.29532 -1170.3898 -342.41941 -1173.6094 C -341.54461 -1176.8286 -341.32795 -1180.0907 -341.78276 -1183.3974 C -342.16266 -1186.7654 -343.01648 -1191.2218 -344.34074 -1196.7526 C -345.76671 -1203.2144 -346.70015 -1208.555 -347.11939 -1212.7765 C -347.53941 -1216.9979 -347.06599 -1221.2837 -345.69622 -1225.6475 C -344.19266 -1229.9947 -341.1779 -1233.9578 -336.65439 -1237.5238 C -331.74167 -1241.3972 -326.689 -1243.4574 -321.48788 -1243.7172 z M -1241.302 -1235.9306 L -1241.301 -1235.9301 C -1238.9143 -1234.1456 -1237.2518 -1232.6458 -1236.2961 -1231.4368 C -1237.3858 -1229.647 -1237.893 -1228.0498 -1237.8304 -1226.6397 C -1237.7774 -1225.2297 -1237.026 -1223.6726 -1235.5633 -1221.9666 C -1234.1312 -1220.4015 -1231.7444 -1218.3659 -1228.402 -1215.8698 L -1186.2759 -1184.4035 C -1186.5718 -1183.0123 -1187.544 -1181.1969 -1189.207 -1178.9697 L -1268.5918 -1171.518 L -1239.946 -1150.1302 C -1236.525 -1147.5752 -1233.7948 -1145.8417 -1231.7476 -1144.932 C -1229.6408 -1144.1027 -1227.8442 -1143.9341 -1226.3556 -1144.4344 C -1224.8662 -1144.9347 -1223.2995 -1146.1173 -1221.6552 -1147.9877 C -1220.0856 -1147.4339 -1218.1423 -1146.2969 -1215.8348 -1144.5729 C -1219.2031 -1140.3959 -1221.925 -1136.9187 -1224.0054 -1134.1342 C -1226.7985 -1130.3951 -1229.4298 -1126.7216 -1231.8855 -1123.1024 C -1234.1927 -1124.8253 -1235.8322 -1126.3565 -1236.8077 -1127.7057 C -1235.4807 -1129.8139 -1234.8271 -1131.608 -1234.8306 -1133.0976 C -1234.7776 -1134.668 -1235.4683 -1136.3008 -1236.9183 -1138.0058 C -1238.3111 -1139.7902 -1240.7131 -1141.9619 -1244.1349 -1144.5171 L -1278.9886 -1170.5506 L -1279.1974 -1170.5238 C -1280.1693 -1170.39 -1281.0659 -1169.9378 -1281.8794 -1169.1833 C -1282.7714 -1168.485 -1284.2184 -1166.9679 -1286.2207 -1164.6208 C -1287.9505 -1165.2923 -1289.8943 -1166.4319 -1292.0416 -1168.0355 C -1289.7429 -1170.7807 -1287.5779 -1173.5015 -1285.5572 -1176.2066 C -1283.7149 -1178.6733 -1281.9217 -1181.2427 -1280.1792 -1183.9074 L -1205.9786 -1190.3913 L -1232.5925 -1210.2722 C -1235.9337 -1212.7683 -1238.6253 -1214.3953 -1240.6524 -1215.166 C -1242.6999 -1216.0756 -1244.4586 -1216.2874 -1245.9472 -1215.7871 C -1247.4366 -1215.2868 -1249.0416 -1214.0588 -1250.7448 -1212.1098 C -1252.8123 -1213.1586 -1254.7182 -1214.3273 -1256.4685 -1215.6347 C -1253.338 -1219.4937 -1250.7 -1222.8634 -1248.5605 -1225.7276 C -1246.3023 -1228.7508 -1243.8765 -1232.1522 -1241.302 -1235.9306 z M -299.09079 -1151.4789 L -299.09028 -1151.4701 C -297.35129 -1151.5501 -295.62257 -1151.4872 -293.89214 -1151.2831 C -286.8838 -1150.4886 -280.51374 -1147.8733 -274.7853 -1143.4303 C -269.00896 -1138.9003 -264.24929 -1133.2402 -260.51795 -1126.4525 C -257.98176 -1121.8404 -256.05517 -1117.2886 -254.72503 -1112.8074 C -253.30709 -1108.3738 -252.26392 -1103.5015 -251.61462 -1098.1938 C -255.39972 -1097.2467 -260.60952 -1094.9587 -267.22297 -1091.3229 C -268.91647 -1092.5455 -270.49686 -1094.5015 -271.97927 -1097.1985 C -266.46647 -1100.5689 -263.37245 -1104.3232 -262.68836 -1108.4387 C -261.86969 -1112.5146 -262.90227 -1117.2042 -265.82667 -1122.5127 C -270.61022 -1131.2149 -276.59439 -1136.4288 -283.77235 -1138.149 C -290.9503 -1139.8693 -298.01853 -1138.8102 -304.98036 -1134.9833 C -310.46268 -1131.9698 -314.80946 -1128.1136 -318.00385 -1123.4114 C -321.06339 -1118.6701 -322.67649 -1113.4674 -322.85627 -1107.8165 C -322.99004 -1102.0781 -321.4305 -1096.2581 -318.18368 -1090.341 C -316.22269 -1086.7734 -313.82063 -1083.325 -310.98051 -1080.0135 C -308.05339 -1076.7502 -304.93654 -1073.9903 -301.64826 -1071.7184 C -301.78203 -1070.9559 -302.18613 -1070.1156 -302.82287 -1069.2033 C -303.36592 -1068.3391 -303.95714 -1067.6702 -304.60725 -1067.1993 C -310.07088 -1070.5419 -314.70402 -1074.0108 -318.48806 -1077.5966 C -322.1851 -1081.23 -325.53953 -1085.7874 -328.55308 -1091.2697 C -332.47537 -1098.4055 -334.52916 -1105.5511 -334.71911 -1112.6989 C -334.90638 -1119.8469 -333.29036 -1126.3896 -329.88013 -1132.3447 C -326.4677 -1138.2995 -321.45192 -1143.1015 -314.83815 -1146.7371 C -309.55168 -1149.6431 -304.30588 -1151.2255 -299.09079 -1151.4789 z M -1311.6579 -1135.1853 L -1311.6574 -1135.1853 C -1308.9574 -1133.928 -1307.0198 -1132.8014 -1305.8376 -1131.8119 C -1306.5386 -1129.8374 -1306.7123 -1128.1743 -1306.3626 -1126.807 C -1306.0132 -1125.4399 -1304.9525 -1124.0594 -1303.183 -1122.6869 C -1301.4601 -1121.4455 -1298.7093 -1119.955 -1294.9292 -1118.1941 L -1247.2732 -1095.9764 C -1247.2832 -1094.5558 -1247.8691 -1092.5799 -1249.0431 -1090.0594 L -1325.2204 -1066.5699 L -1292.8276 -1051.4726 C -1288.9572 -1049.6694 -1285.9206 -1048.5306 -1283.731 -1048.0578 C -1281.4992 -1047.6753 -1279.7083 -1047.8973 -1278.353 -1048.6785 C -1276.9974 -1049.4704 -1275.71 -1050.9501 -1274.4814 -1053.1164 C -1272.8318 -1052.9024 -1270.691 -1052.1778 -1268.0807 -1050.9605 C -1270.5257 -1046.1837 -1272.4885 -1042.2208 -1273.9564 -1039.0703 C -1275.9277 -1034.84 -1277.7382 -1030.6998 -1279.4036 -1026.6555 C -1282.0139 -1027.8727 -1283.9382 -1029.031 -1285.1686 -1030.153 C -1284.3002 -1032.4859 -1284.0183 -1034.3915 -1284.3252 -1035.8493 C -1284.59 -1037.3984 -1285.6093 -1038.8598 -1287.3809 -1040.232 C -1289.1092 -1041.6954 -1291.9019 -1043.3222 -1295.7726 -1045.1262 L -1335.2022 -1063.5003 L -1335.395 -1063.4202 C -1336.3187 -1063.0831 -1337.0911 -1062.4595 -1337.7313 -1061.5526 C -1338.4625 -1060.6884 -1339.5691 -1058.9092 -1341.0494 -1056.202 C -1342.8793 -1056.507 -1345.0202 -1057.2268 -1347.4506 -1058.3585 C -1345.7597 -1061.5151 -1344.1895 -1064.6164 -1342.764 -1067.6768 C -1341.4637 -1070.4672 -1340.235 -1073.3532 -1339.0728 -1076.3176 L -1267.7614 -1097.8021 L -1297.8732 -1111.8348 C -1301.6538 -1113.5979 -1304.6207 -1114.6468 -1306.7626 -1114.9871 C -1308.9524 -1115.4607 -1310.7166 -1115.2948 -1312.0719 -1114.5029 C -1313.4273 -1113.711 -1314.7414 -1112.197 -1316.0117 -1109.9409 C -1318.2499 -1110.5455 -1320.3636 -1111.2999 -1322.3436 -1112.2229 C -1320.0666 -1116.6396 -1318.1718 -1120.4712 -1316.6618 -1123.7116 L -1316.6757 -1123.7256 C -1315.0814 -1127.1455 -1313.4062 -1130.962 -1311.6579 -1135.1853 z M -232.79717 -1068.9511 L -232.79665 -1068.9496 L -232.79872 -1068.9496 C -231.0303 -1062.8417 -229.41296 -1057.5302 -227.94578 -1052.995 C -226.72316 -1049.216 -224.95148 -1044.0492 -222.62311 -1037.4967 C -225.36295 -1036.6112 -227.41071 -1036.1483 -228.76124 -1036.1268 C -230.05073 -1039.467 -231.54848 -1041.5481 -233.26845 -1042.3486 C -234.9566 -1043.0549 -237.83279 -1042.7496 -241.89583 -1041.436 L -257.06183 -1036.5283 L -245.18607 -999.82203 L -230.01956 -1004.7297 C -227.2797 -1005.6153 -225.29462 -1006.5655 -224.06075 -1007.5921 C -222.7953 -1008.5231 -222.07285 -1009.692 -221.90429 -1011.1035 C -221.71702 -1012.4198 -221.89629 -1014.2925 -222.4717 -1016.7166 C -221.17683 -1017.554 -219.25764 -1018.3808 -216.70667 -1019.2048 C -214.93829 -1013.097 -213.33173 -1007.8293 -211.89508 -1003.3887 C -210.64033 -999.51541 -208.85945 -994.30447 -206.53107 -987.75196 C -208.98705 -986.95737 -211.04643 -986.55104 -212.71105 -986.53498 C -214.00055 -989.87518 -215.48692 -991.89863 -217.17641 -992.60438 C -218.86456 -993.31068 -221.74048 -993.00538 -225.80379 -991.69177 L -264.51461 -979.16592 C -268.57712 -977.85232 -271.12322 -976.40353 -272.17357 -974.81115 C -273.09924 -973.1551 -273.11826 -970.64389 -272.22732 -967.27673 C -273.20917 -966.43667 -275.11672 -965.55371 -277.951 -964.63606 C -279.8398 -971.1219 -281.42287 -976.3595 -282.70678 -980.32761 C -284.23441 -985.05144 -286.04171 -990.30564 -288.12609 -996.10236 C -285.29154 -997.02001 -283.23294 -997.42419 -281.94662 -997.31985 C -280.68654 -994.07441 -279.21158 -992.0947 -277.52208 -991.38895 C -275.70822 -990.61844 -272.77818 -990.89132 -268.71539 -992.20492 L -251.4198 -997.80406 C -257.28928 -1015.9444 -261.48023 -1028.0978 -264.00095 -1034.2752 L -280.59115 -1028.9112 C -284.65394 -1027.5975 -287.20028 -1026.1483 -288.25063 -1024.5559 C -289.17631 -1022.8998 -289.18982 -1020.3445 -288.2775 -1016.883 C -289.38243 -1016.1072 -291.30244 -1015.2674 -294.04252 -1014.3819 C -295.9313 -1020.8678 -297.52836 -1026.0914 -298.81226 -1030.0595 C -300.3399 -1034.7836 -302.14722 -1040.0514 -304.23156 -1045.8482 C -301.39732 -1046.7658 -299.32421 -1047.1701 -298.03763 -1047.0657 C -297.0852 -1044.7649 -296.15187 -1043.1355 -295.21764 -1042.1853 C -294.25186 -1041.1392 -292.98598 -1040.6092 -291.41529 -1040.5958 C -289.84485 -1040.5818 -287.64173 -1041.0347 -284.80691 -1041.9497 L -246.11005 -1054.4755 C -243.37021 -1055.3611 -241.37428 -1056.2679 -240.1099 -1057.1989 C -238.84445 -1058.13 -238.122 -1059.2993 -237.95344 -1060.7108 C -237.76617 -1062.0298 -237.94544 -1063.9016 -238.52085 -1066.3239 C -237.35171 -1067.2255 -235.44226 -1068.095 -232.79717 -1068.9511 z M -1291.3346 -1012.9959 C -1289.2647 -1013.1297 -1287.1142 -1012.9159 -1284.8921 -1012.3887 C -1286.5578 -1006.6602 -1288.0096 -1001.1813 -1289.2469 -995.96386 C -1290.4615 -990.84326 -1291.6176 -985.3502 -1292.7035 -979.48425 C -1295.5054 -980.15041 -1297.4973 -980.99067 -1298.6897 -981.98591 C -1298.3385 -984.75994 -1298.329 -986.74428 -1298.6629 -987.94472 C -1298.9679 -989.24223 -1299.7993 -990.04212 -1301.1511 -990.36317 C -1302.3106 -990.63872 -1304.8503 -990.47022 -1308.7692 -989.87896 L -1325.055 -987.00317 C -1328.7001 -971.64052 -1331.5371 -958.84714 -1333.5579 -948.61017 L -1324.4882 -942.31959 C -1320.797 -939.81014 -1317.7933 -938.28001 -1315.4742 -937.72969 C -1313.5418 -937.27221 -1311.9594 -937.51534 -1310.7185 -938.44903 C -1309.5505 -939.49778 -1308.5575 -941.3051 -1307.746 -943.86885 C -1305.9431 -944.15512 -1303.7878 -944.00219 -1301.2756 -943.39756 C -1302.3458 -940.18128 -1303.5693 -935.63223 -1304.9669 -929.73845 C -1305.5627 -927.22628 -1306.3698 -923.17587 -1307.3864 -917.59966 C -1309.802 -918.17214 -1311.7524 -918.99354 -1313.2346 -920.061 C -1313.1276 -922.68822 -1313.9206 -924.95975 -1315.5988 -926.89056 C -1317.2843 -928.82218 -1320.79 -931.64834 -1326.1335 -935.3655 L -1395.9794 -983.62973 C -1395.9794 -985.36336 -1395.7248 -987.29628 -1395.2187 -989.42266 L -1307.898 -1005.1421 C -1301.9143 -1006.2738 -1297.8884 -1007.2985 -1295.8284 -1008.2391 C -1293.7454 -1009.2745 -1292.2488 -1010.8635 -1291.3351 -1012.9949 L -1291.3346 -1012.9959 z M -1332.2298 -985.80118 L -1360.641 -980.90742 C -1367.9956 -979.59113 -1373.7649 -978.71626 -1377.9505 -978.28019 C -1374.9174 -976.43686 -1370.1308 -973.36373 -1363.6 -969.05853 L -1340.0273 -952.91068 L -1332.2298 -985.80118 z M -236.72457 -949.4959 C -229.22369 -950.33061 -222.37051 -949.28187 -216.1527 -946.38498 C -209.92371 -943.38108 -204.86836 -938.80536 -200.98619 -932.64266 C -196.99401 -926.39225 -194.5164 -918.97066 -193.56183 -910.38407 C -192.61743 -901.89653 -193.37447 -894.2158 -195.80097 -887.35086 C -198.23555 -880.48587 -202.16605 -874.96097 -207.59405 -870.76065 C -212.91241 -866.47261 -219.32405 -863.90769 -226.82492 -863.07378 C -234.42424 -862.22842 -241.33393 -863.31471 -247.56267 -866.30925 C -253.68203 -869.22588 -258.73728 -873.81427 -262.72919 -880.065 C -266.61163 -886.22765 -269.03309 -893.59907 -269.98766 -902.18561 C -270.93207 -910.67316 -270.17508 -918.35388 -267.74852 -925.21883 C -265.31394 -932.08376 -261.43968 -937.6592 -256.12132 -941.94701 C -250.79205 -946.13658 -244.32394 -948.65103 -236.72457 -949.4959 z M -226.50763 -934.7583 C -228.51945 -934.8386 -230.6162 -934.7394 -232.81215 -934.49061 C -239.42453 -933.75488 -245.14999 -931.82084 -249.99663 -928.68425 C -254.74487 -925.55862 -258.25946 -921.57252 -260.51795 -916.72529 C -262.77596 -911.87806 -263.58677 -906.59155 -262.95243 -900.86734 C -262.06422 -892.87313 -258.6917 -886.85778 -252.84607 -882.8116 C -246.99001 -878.66665 -239.62211 -877.08178 -230.73941 -878.06925 C -224.32446 -878.78357 -218.74473 -880.69654 -213.99676 -883.82084 C -209.14985 -886.95743 -205.54605 -891.01642 -203.19949 -895.97307 C -200.84249 -900.83149 -199.99186 -906.12076 -200.62859 -911.84497 C -201.5168 -919.83918 -204.92885 -925.8515 -210.87292 -929.88676 C -215.25705 -932.92089 -220.4725 -934.54417 -226.50918 -934.75365 L -226.50763 -934.7583 z M -1318.7226 -877.02384 C -1315.3492 -876.89007 -1312.8212 -875.77676 -1311.1189 -873.71913 C -1309.4155 -871.65911 -1308.6246 -869.09413 -1308.7547 -866.01831 C -1308.8804 -862.84371 -1309.8713 -860.40195 -1311.7406 -858.69111 C -1313.6016 -856.98155 -1315.9306 -856.18446 -1318.7087 -856.29952 C -1321.4868 -856.43327 -1323.8172 -857.51659 -1325.7181 -859.57581 C -1327.6144 -861.7428 -1328.5057 -864.40619 -1328.3727 -867.581 C -1328.247 -870.45809 -1327.1516 -872.7493 -1325.0964 -874.4519 C -1323.1322 -876.25777 -1321.0044 -877.11964 -1318.7226 -877.02332 L -1318.7226 -877.02384 z M -1367.4984 -847.23082 L -1367.4984 -847.22927 C -1366.4715 -845.20672 -1365.8676 -842.81467 -1365.6877 -840.04005 C -1370.4313 -839.53442 -1373.8622 -838.01779 -1375.9873 -835.49201 C -1378.1185 -833.06544 -1379.0183 -829.37224 -1378.6967 -824.41775 L -1378.2823 -817.87809 L -1327.2942 -821.1828 C -1324.2224 -821.37009 -1321.9603 -821.77908 -1320.506 -822.37033 C -1319.1576 -823.05519 -1318.2324 -824.11218 -1317.7273 -825.53654 C -1317.2297 -827.06149 -1316.9719 -829.31166 -1316.9666 -832.29737 C -1315.8089 -832.86987 -1313.7453 -833.25247 -1310.7732 -833.4451 C -1310.495 -826.09913 -1310.2035 -820.10168 -1309.902 -815.44413 C -1309.5294 -809.69669 -1309.0316 -803.55602 -1308.409 -797.02872 C -1311.3819 -796.84143 -1313.4786 -796.94852 -1314.6996 -797.37392 C -1315.0902 -800.33393 -1315.6389 -802.53465 -1316.331 -803.9823 C -1317.0285 -805.52866 -1318.1377 -806.5532 -1319.6626 -807.05136 C -1321.1876 -807.54897 -1323.4366 -807.70185 -1326.4095 -807.50922 L -1377.3976 -804.20451 L -1376.9966 -798.10772 C -1376.7398 -794.14394 -1375.9891 -791.10618 -1374.7569 -788.99665 C -1373.6314 -786.97942 -1372.1007 -785.53822 -1370.1531 -784.66927 C -1368.2059 -783.79979 -1365.468 -783.13396 -1361.9546 -782.66577 C -1361.7487 -779.49495 -1362.0595 -777.13136 -1362.8533 -775.58713 C -1369.6878 -776.63588 -1376.1757 -776.96762 -1382.3192 -776.56899 C -1382.461 -781.73483 -1383.0962 -793.08102 -1384.2271 -810.62066 C -1385.3848 -828.45748 -1386.2308 -839.89446 -1386.7572 -844.93536 C -1381.3866 -844.98886 -1374.9653 -845.75405 -1367.4984 -847.23082 z M -226.83939 -839.10057 C -219.32113 -838.44512 -212.80194 -836.07935 -207.27624 -832.00798 C -201.75943 -827.83815 -197.6917 -822.34788 -195.09611 -815.54232 C -192.41031 -808.62923 -191.44142 -800.86714 -192.19293 -792.26054 C -192.93664 -783.75287 -195.17738 -776.37852 -198.91241 -770.12597 C -202.64829 -763.87316 -207.59893 -759.21427 -213.74665 -756.16248 C -219.80389 -753.00342 -226.59299 -751.75941 -234.1113 -752.41594 C -241.72881 -753.08211 -248.2956 -755.49064 -253.81242 -759.66046 C -259.23909 -763.72269 -263.29306 -769.21302 -265.9786 -776.12612 C -268.57371 -782.93166 -269.49531 -790.63569 -268.74381 -799.24202 C -268.00006 -807.74965 -265.75987 -815.13799 -262.02484 -821.39054 C -258.28923 -827.64309 -253.38584 -832.34662 -247.32858 -835.50596 C -241.27986 -838.56572 -234.45664 -839.76567 -226.83939 -839.10057 z M -225.94022 -823.61728 L -225.94022 -823.61624 C -232.56839 -824.19411 -238.57253 -823.42891 -243.94119 -821.30734 C -249.21107 -819.17508 -253.42369 -815.95201 -256.59106 -811.64333 C -259.75842 -807.33471 -261.59247 -802.31151 -262.09357 -796.57397 C -262.79185 -788.56076 -260.68349 -782.00285 -255.7477 -776.8868 C -250.82053 -771.67197 -243.89929 -768.66404 -234.996 -767.88631 C -228.56576 -767.32449 -222.72174 -768.12735 -217.45185 -770.25154 C -212.0832 -772.37311 -207.75826 -775.62656 -204.48365 -780.02562 C -201.2173 -784.32573 -199.33031 -789.34374 -198.82921 -795.08155 C -198.13093 -803.09448 -200.30592 -809.67224 -205.34096 -814.79663 C -210.27669 -819.91269 -217.13617 -822.84837 -225.94022 -823.61728 z M -1324.7641 -759.41189 L -1324.7641 -759.41138 C -1322.3031 -759.30436 -1319.8786 -758.89784 -1317.4782 -758.15409 C -1312.7958 -756.74417 -1308.5839 -753.81338 -1304.8558 -749.34739 C -1301.2459 -744.9561 -1298.6248 -739.07666 -1297.003 -731.70609 L -1297.017 -731.70609 C -1295.7791 -726.08117 -1295.3828 -720.87859 -1295.8553 -716.09723 C -1296.4262 -711.29468 -1297.7544 -705.95955 -1299.823 -700.11526 C -1305.4461 -699.79155 -1312.4281 -698.71562 -1320.7685 -696.87979 C -1321.8406 -698.98262 -1322.7061 -701.54641 -1323.3678 -704.55271 C -1315.6948 -706.64753 -1310.2072 -709.88499 -1306.9021 -714.27253 C -1303.6183 -718.75725 -1302.7981 -724.73625 -1304.4408 -732.20374 C -1305.8285 -738.50765 -1308.2121 -742.85967 -1311.5887 -745.26857 C -1315.084 -747.75398 -1319.1141 -748.49668 -1323.6722 -747.49428 C -1327.4546 -746.66225 -1330.4391 -744.99029 -1332.6308 -742.47598 C -1334.8224 -739.96115 -1336.4258 -737.10687 -1337.4558 -733.9318 C -1338.583 -730.73528 -1339.7636 -726.36674 -1340.9812 -720.81167 C -1342.5132 -714.37392 -1344.0121 -709.15742 -1345.4745 -705.17541 C -1346.9371 -701.19318 -1349.2293 -697.54418 -1352.3598 -694.21174 C -1355.6087 -690.95503 -1360.0483 -688.70244 -1365.6732 -687.46487 C -1373.8197 -685.67237 -1380.7974 -686.88952 -1386.6048 -691.10082 C -1392.4126 -695.31366 -1396.3028 -701.92101 -1398.2873 -710.94043 C -1399.3327 -715.69241 -1399.7067 -720.38702 -1399.4071 -725.02846 C -1399.2038 -729.64883 -1398.4815 -733.52089 -1397.2367 -736.64171 C -1388.6051 -738.54122 -1382.2689 -740.24367 -1378.2265 -741.74321 C -1376.8834 -739.80089 -1375.841 -737.18781 -1375.1161 -733.89046 C -1382.77 -730.78276 -1387.7078 -727.56071 -1389.9229 -724.22645 C -1392.235 -720.87074 -1392.8827 -716.86732 -1391.8582 -712.21219 C -1390.7276 -707.07206 -1388.5777 -703.31296 -1385.4157 -700.9581 C -1382.254 -698.60378 -1378.3887 -697.93738 -1373.8304 -698.94117 C -1370.0483 -699.77322 -1367.0219 -701.45059 -1364.7332 -703.98737 C -1362.4657 -706.62261 -1360.7726 -709.54229 -1359.6457 -712.73877 C -1358.54 -716.03241 -1357.2689 -720.48215 -1355.8573 -726.08008 C -1354.4 -732.39951 -1352.9305 -737.49946 -1351.4472 -741.38457 C -1349.9848 -745.36685 -1347.7277 -748.96822 -1344.673 -752.18236 C -1341.6179 -755.39627 -1337.4801 -757.56953 -1332.2438 -758.72201 C -1329.722 -759.27582 -1327.2249 -759.50553 -1324.7641 -759.41189 z M -276.14646 -736.55851 L -276.14026 -736.55799 C -273.169 -735.75271 -271.07532 -734.92595 -269.86364 -734.08321 C -270.29437 -731.73157 -270.39062 -729.84458 -270.15251 -728.44273 C -269.91173 -727.04084 -269.09573 -725.89549 -267.69116 -725.00004 C -266.31334 -724.00748 -264.09506 -723.10605 -261.02748 -722.27669 L -223.21532 -712.01841 C -220.43589 -711.26664 -218.24173 -710.98829 -216.64828 -711.17556 C -215.08051 -711.25586 -213.8417 -711.85506 -212.92913 -712.94393 C -212.04358 -713.9365 -211.18485 -715.6033 -210.34479 -717.94879 C -208.70746 -717.92199 -206.48873 -717.52329 -203.70902 -716.77419 C -205.77174 -709.92525 -207.31288 -704.6266 -208.32631 -700.88885 C -209.3911 -696.95933 -210.7369 -691.61272 -212.36327 -684.85159 C -215.23875 -685.63011 -217.33218 -686.45687 -218.63989 -687.32637 C -217.9229 -690.73237 -218.10772 -693.25299 -219.2073 -694.8887 C -220.23732 -696.40296 -222.81492 -697.71182 -226.93551 -698.82851 L -264.31927 -708.96278 C -267.38631 -709.79481 -269.8059 -710.14816 -271.59118 -710.01439 C -273.27933 -709.85388 -274.6799 -709.09634 -275.76664 -707.74528 C -276.78322 -706.27115 -277.71681 -703.95427 -278.57318 -700.79118 L -278.81399 -699.9349 C -280.03663 -695.43044 -280.56624 -691.76529 -280.40304 -688.94384 C -280.16231 -686.00045 -279.30348 -683.50383 -277.80527 -681.45076 C -276.23484 -679.27569 -273.86927 -676.97803 -270.7132 -674.57935 C -271.89303 -672.12069 -273.52253 -670.3063 -275.59352 -669.1187 C -279.63066 -672.06482 -285.07659 -674.93261 -291.93516 -677.71766 L -284.89786 -703.11507 C -281.15663 -716.91643 -278.24074 -728.07231 -276.14646 -736.55851 z M -1462.4627 -636.1326 L -1561.6592 -389.33629 C -1307.6082 -326.4281 -947.09141 -263.23568 -797.07693 -261.09244 C -647.06138 -263.23541 -286.55953 -326.4281 -32.508615 -389.33629 L -131.70721 -636.1326 C -190.29582 -620.43373 -263.43054 -602.03707 -339.46766 -584.04069 L -339.11419 -583.88049 C -374.02341 -575.56016 -423.22172 -564.34577 -423.22172 -564.34577 C -429.61364 -562.92534 -434.36447 -562.07187 -437.97276 -561.60795 C -578.22704 -530.7558 -717.34477 -505.46977 -797.08469 -505.46977 C -876.67439 -505.46977 -1015.4344 -530.66126 -1155.4256 -561.43276 L -1155.4256 -561.43328 C -1159.1643 -561.83979 -1164.3436 -562.73661 -1171.5848 -564.34577 L -1255.6924 -583.88049 L -1255.2578 -584.17815 C -1331.0838 -602.13116 -1404.0227 -620.47365 -1462.4627 -636.1326 z M -915.04234 -626.73265 C -1013.5391 -627.26236 -1125.5033 -604.60522 -1183.7236 -607.10026 L -1189.7791 -600.69807 C -1184.5636 -592.95267 -1179.2722 -586.26416 -1174.1475 -581.49407 C -1135.8964 -571.02195 -1117.3718 -568.84425 -1107.0218 -566.89341 C -1106.763 -566.84461 -1107.0888 -566.80681 -1107.7815 -566.77404 C -1075.6817 -565.10751 -1041.1471 -563.16359 -1004.6581 -562.5128 C -958.40908 -561.68879 -911.67583 -564.58356 -872.63976 -565.87229 C -870.92222 -584.87076 -869.04263 -604.28007 -867.05457 -624.28474 C -882.46435 -625.90334 -898.55979 -626.64435 -915.04234 -626.73265 z M -671.7714 -626.66186 C -689.86994 -626.74216 -707.53366 -626.03884 -724.41832 -624.34004 C -722.42785 -604.29656 -720.53784 -584.85026 -718.81918 -565.81699 C -680.13574 -564.50072 -634.10335 -561.70217 -588.54289 -562.5128 C -543.23392 -563.32069 -499.42031 -566.26989 -461.79869 -567.98999 C -443.05542 -572.36914 -428.19347 -575.8243 -415.52968 -578.74282 C -415.55841 -578.74799 -415.58103 -578.74328 -415.60978 -578.7485 C -410.41475 -582.78908 -404.98434 -589.09273 -399.59112 -596.66266 L -409.46338 -607.09923 C -466.44467 -604.65662 -574.86829 -626.26403 -671.7714 -626.66186 z M -1474.8232 -533.54661 C -1471.4534 -532.39362 -1467.4384 -531.18213 -1462.796 -529.91117 C -1458.0818 -528.62169 -1453.7322 -527.54869 -1449.7451 -526.68967 C -1450.1946 -525.04701 -1450.796 -523.55525 -1451.5424 -522.22431 C -1454.1535 -522.78341 -1456.0327 -522.94936 -1457.1695 -522.72195 C -1458.2851 -522.56143 -1459.0233 -521.80391 -1459.3952 -520.45284 C -1459.7858 -519.0242 -1459.8535 -516.39062 -1459.5879 -512.55875 C -1458.796 -494.68494 -1458.2627 -480.22886 -1457.9844 -469.17483 L -1423.9188 -519.62343 C -1422.8941 -519.73045 -1421.2668 -519.48983 -1419.0519 -518.86379 C -1417.214 -500.32013 -1415.5351 -479.67097 -1414.0057 -456.91253 L -1392.7977 -489.80251 C -1390.6012 -493.3471 -1389.2548 -496.04737 -1388.7468 -497.90434 C -1388.1795 -499.97507 -1388.3201 -501.66591 -1389.1896 -502.97845 C -1389.9681 -504.34289 -1391.4996 -505.4904 -1393.7795 -506.42062 C -1393.9133 -507.84391 -1393.7535 -509.44747 -1393.2679 -511.23221 C -1390.3303 -510.19683 -1386.9044 -509.15331 -1382.9817 -508.07995 L -1382.9678 -508.07995 C -1379.0458 -507.00713 -1375.6348 -506.18311 -1372.7235 -505.6186 C -1373.1729 -503.97593 -1373.837 -502.50046 -1374.728 -501.20853 C -1376.0924 -501.28883 -1377.324 -500.96733 -1378.4332 -500.26906 C -1379.5434 -499.57613 -1380.8115 -498.30545 -1382.235 -496.46722 C -1383.6396 -494.70147 -1385.5539 -491.93571 -1387.9726 -488.14473 L -1419.1625 -439.78334 C -1420.4227 -439.67632 -1421.9132 -439.86374 -1423.6284 -440.30786 C -1425.2229 -462.54673 -1427.0041 -483.42442 -1428.9645 -502.92264 L -1463.1965 -451.82447 C -1464.4566 -451.6907 -1466.0521 -451.90467 -1467.9797 -452.44769 C -1468.6512 -474.97145 -1469.4806 -495.5361 -1470.4544 -514.15038 C -1470.722 -518.5214 -1471.0251 -521.59917 -1471.381 -523.38547 C -1471.6672 -525.15388 -1472.1113 -526.357 -1472.708 -526.98009 C -1473.2136 -527.65696 -1474.1546 -528.25845 -1475.5425 -528.79083 C -1475.5685 -530.03207 -1475.3332 -531.61928 -1474.8232 -533.54661 z M -103.84483 -525.65459 L -103.84431 -525.65459 L -103.84948 -525.63908 C -103.20204 -523.51489 -102.86745 -521.87994 -102.82732 -520.73086 C -104.27201 -520.13426 -105.28336 -519.40635 -105.869 -518.53151 C -106.45487 -517.65666 -106.67978 -516.38328 -106.55939 -514.71572 C -106.37212 -513.1426 -105.83981 -510.87592 -104.94089 -507.90011 L -93.507476 -470.39181 C -94.299379 -469.6855 -95.687882 -469.0193 -97.668979 -468.41467 L -148.67052 -498.98231 L -140.90045 -473.47483 C -139.9721 -470.42893 -139.10259 -468.17827 -138.27322 -466.72795 C -137.37162 -465.29931 -136.36033 -464.41623 -135.2455 -464.06041 C -134.12987 -463.70459 -132.66406 -463.71014 -130.84938 -464.11416 C -130.15111 -463.08949 -129.48485 -461.55103 -128.85881 -459.49635 C -132.72709 -458.47168 -135.90509 -457.58594 -138.38432 -456.82881 C -141.71353 -455.81486 -144.91959 -454.76916 -147.99304 -453.67707 C -148.61907 -455.73176 -148.92658 -457.37162 -148.91856 -458.61268 C -147.1903 -459.29489 -145.99283 -460.08171 -145.3379 -460.97791 C -144.61288 -461.89555 -144.30543 -463.19541 -144.42582 -464.86243 C -144.47929 -466.55058 -144.96621 -468.90863 -145.89188 -471.95502 L -155.34815 -502.99292 L -155.48199 -503.07354 C -156.12942 -503.41866 -156.87342 -503.5413 -157.69477 -503.44767 C -158.53748 -503.42967 -160.07063 -503.15386 -162.31258 -502.61878 C -163.05365 -503.78523 -163.71941 -505.33687 -164.30264 -507.25003 C -161.71021 -507.88404 -159.20394 -508.5612 -156.7956 -509.29693 C -154.59913 -509.96576 -152.39678 -510.71751 -150.17327 -511.5495 L -102.71105 -482.70992 L -109.92766 -506.39271 C -110.83458 -509.36772 -111.73133 -511.53248 -112.61019 -512.89051 C -113.43955 -514.34055 -114.41037 -515.24514 -115.5268 -515.60042 C -116.64243 -515.95624 -118.1326 -515.93169 -120.02007 -515.49293 C -120.7986 -517.0366 -121.43832 -518.58029 -121.91453 -520.13864 C -118.32955 -521.07769 -115.25644 -521.93369 -112.70682 -522.70955 L -112.70682 -522.7235 C -110.01515 -523.54485 -107.06008 -524.51863 -103.84483 -525.65459 z M -179.78955 -502.71955 C -179.15293 -500.52239 -178.82854 -498.88402 -178.8232 -497.80822 C -181.34339 -496.92272 -182.91646 -495.83658 -183.55159 -494.57328 C -184.11609 -493.32923 -183.9556 -491.18899 -183.06738 -488.13078 L -174.79967 -459.65035 C -173.91145 -456.59267 -172.8812 -454.64896 -171.71666 -453.83003 C -170.50473 -453.10233 -168.59503 -453.04903 -165.99297 -453.64296 C -165.39904 -452.65842 -164.78896 -451.08765 -164.16828 -448.95591 C -169.04515 -447.69314 -172.97485 -446.63095 -175.96136 -445.76231 C -179.51686 -444.72961 -183.48359 -443.50991 -187.85107 -442.08501 C -188.49048 -444.28952 -188.77424 -445.93529 -188.70735 -447.03406 C -186.97104 -447.69221 -185.74404 -448.36126 -185.01559 -449.03807 C -184.21565 -449.73366 -183.79034 -450.66232 -183.74486 -451.83119 C -183.69136 -453.00028 -183.98581 -454.6469 -184.60114 -456.78024 L -192.88229 -485.26067 C -193.48157 -487.32337 -194.11057 -488.84583 -194.77675 -489.80923 C -195.4429 -490.77236 -196.2989 -491.32364 -197.34765 -491.48148 C -198.32416 -491.66876 -199.71784 -491.56138 -201.53654 -491.18951 C -202.20271 -492.15264 -202.8501 -493.70163 -203.47079 -495.8347 C -198.87852 -497.01455 -194.86973 -498.10606 -191.45654 -499.09755 C -188.61235 -499.92417 -184.72516 -501.13087 -179.78955 -502.71955 z M -233.9325 -486.52054 L -233.93146 -486.51331 C -229.75606 -486.96812 -226.13877 -486.96996 -223.09233 -486.49884 C -222.9853 -483.60893 -222.18819 -479.41662 -220.68731 -473.91769 C -221.81632 -472.99468 -223.55661 -472.19774 -225.91335 -471.55298 C -227.36072 -475.99326 -229.70026 -478.77673 -232.92274 -479.88942 C -236.14576 -481.00238 -240.07379 -480.91403 -244.71582 -479.64861 C -249.64353 -478.29755 -253.56215 -476.22492 -256.48099 -473.42728 C -259.32838 -470.65028 -261.14725 -467.46659 -261.9282 -463.87386 C -262.72813 -460.35284 -262.63456 -456.7741 -261.63933 -453.13188 C -259.64083 -445.84771 -256.11486 -440.43364 -251.07667 -436.90083 C -245.96699 -433.38781 -239.88384 -432.61252 -232.8137 -434.55214 C -230.60117 -435.15945 -228.8928 -435.65401 -227.69825 -436.05799 C -226.50237 -436.46196 -225.31674 -437.02128 -224.13103 -437.73024 C -223.06624 -438.32952 -222.38167 -439.08928 -222.09808 -440.01227 C -221.83056 -441.00481 -221.96403 -442.46844 -222.49909 -444.39495 L -223.41169 -447.71309 C -223.97887 -449.78383 -224.56194 -451.21224 -225.15319 -451.97123 C -225.76585 -452.80326 -226.64612 -453.20967 -227.79385 -453.20164 C -228.96299 -453.28194 -230.76467 -453.01444 -233.21316 -452.39911 C -233.99438 -453.56824 -234.6553 -455.15611 -235.20374 -457.15541 C -233.52094 -457.46308 -229.60751 -458.45845 -223.46595 -460.14179 C -217.39585 -461.80584 -213.67042 -462.89725 -212.2811 -463.43203 C -211.7327 -461.43355 -211.46245 -459.74133 -211.46513 -458.35792 C -212.80281 -457.9138 -213.70178 -457.43498 -214.17505 -456.92131 C -214.66732 -456.47988 -214.91363 -455.80281 -214.8949 -454.88785 C -214.8939 -454.0451 -214.65381 -452.73411 -214.14817 -450.94752 L -213.4154 -448.26551 C -212.96326 -446.62283 -212.5299 -445.32722 -212.11522 -444.36653 C -211.64703 -443.49703 -211.01531 -442.59056 -210.22077 -441.65713 C -212.56702 -439.01654 -215.73336 -436.53622 -219.70494 -434.21882 C -223.62462 -431.99295 -228.11412 -430.18964 -233.18474 -428.79952 L -233.19869 -428.79952 C -239.34048 -427.11674 -245.07948 -426.80869 -250.43898 -427.87348 C -255.79854 -428.93825 -260.38389 -431.21515 -264.1813 -434.70355 C -267.92703 -438.28345 -270.55439 -442.82241 -272.06195 -448.32132 C -273.62705 -454.03453 -273.42866 -459.31033 -271.45424 -464.15136 C -269.49855 -469.06413 -266.3046 -473.23565 -261.87343 -476.67721 C -257.44223 -480.1188 -252.36538 -482.63178 -246.65213 -484.1982 C -242.29589 -485.39408 -238.05599 -486.15937 -233.9325 -486.52054 z M -1368.148 -484.27365 C -1363.5871 -482.9761 -1359.5816 -481.88997 -1356.1338 -481.02475 C -1353.2608 -480.30508 -1349.294 -479.38753 -1344.2301 -478.2735 C -1344.7517 -476.18939 -1345.2712 -474.72464 -1345.7928 -473.86292 C -1348.4144 -474.36856 -1350.3166 -474.23509 -1351.5025 -473.46191 C -1352.6182 -472.67267 -1353.5643 -470.72924 -1354.3365 -467.64107 L -1357.2262 -456.11103 L -1329.3266 -449.11559 L -1326.4369 -460.64563 C -1325.9152 -462.72973 -1325.7233 -464.36842 -1325.8839 -465.55386 C -1325.9639 -466.723 -1326.4396 -467.62714 -1327.2663 -468.29116 C -1328.0207 -468.9386 -1329.2684 -469.56483 -1331.0268 -470.15875 C -1331.0438 -471.30649 -1330.8266 -472.84956 -1330.3359 -474.78999 C -1325.7749 -473.49245 -1321.7942 -472.42752 -1318.4182 -471.58244 C -1315.4731 -470.84404 -1311.4679 -469.91862 -1306.404 -468.80379 C -1306.8722 -466.93644 -1307.4294 -465.46634 -1308.0768 -464.40716 C -1310.6981 -464.9128 -1312.5758 -464.76852 -1313.6898 -463.97928 C -1314.8027 -463.19004 -1315.7495 -461.24683 -1316.5243 -458.15897 L -1323.8934 -428.73854 C -1324.6666 -425.64983 -1324.7611 -423.46505 -1324.1698 -422.1715 C -1323.4876 -420.93281 -1321.9065 -419.92956 -1319.4275 -419.15773 C -1319.2937 -418.20529 -1319.4785 -416.63749 -1320.0223 -414.48463 C -1324.8706 -415.85174 -1328.8118 -416.9219 -1331.8288 -417.67823 C -1335.4202 -418.57982 -1339.4502 -419.51336 -1343.9397 -420.48478 C -1343.3992 -422.64113 -1342.842 -424.10957 -1342.2669 -424.88141 C -1339.7173 -424.3945 -1337.892 -424.54694 -1336.7784 -425.33616 C -1335.5744 -426.1789 -1334.5791 -428.1373 -1333.8059 -431.22573 L -1330.5152 -444.37376 C -1344.3065 -447.83059 -1353.6507 -449.98269 -1358.5533 -450.8297 L -1361.719 -438.22116 C -1362.4922 -435.13251 -1362.5733 -432.94766 -1361.9815 -431.65412 C -1361.2994 -430.41543 -1359.6918 -429.39092 -1357.1425 -428.59901 C -1357.0885 -427.59307 -1357.3297 -426.05189 -1357.8474 -423.96725 C -1362.6957 -425.33436 -1366.6235 -426.40453 -1369.6404 -427.16086 C -1373.2318 -428.06247 -1377.2758 -428.99602 -1381.7653 -429.9674 C -1381.2249 -432.12374 -1380.6676 -433.57823 -1380.0925 -434.35008 C -1378.2598 -434.04241 -1376.8597 -434.01023 -1375.8897 -434.21624 C -1374.8489 -434.40351 -1374.0023 -435.0005 -1373.3735 -435.98771 C -1372.7449 -436.97492 -1372.172 -438.5477 -1371.6315 -440.70163 L -1364.249 -470.12206 C -1363.7273 -472.20617 -1363.5106 -473.82118 -1363.5989 -474.98843 C -1363.6789 -476.15757 -1364.1546 -477.0754 -1364.9813 -477.73968 C -1365.7358 -478.38712 -1366.9832 -479.01334 -1368.7418 -479.60727 C -1368.8494 -480.70149 -1368.6648 -482.25588 -1368.1475 -484.26642 L -1368.148 -484.27365 z M -295.91063 -470.50395 C -293.42253 -463.95225 -291.62118 -459.68372 -290.50475 -457.67372 C -291.52673 -456.57682 -293.04362 -455.77435 -295.05331 -455.2687 C -296.09937 -458.2124 -297.95052 -460.25725 -300.61111 -461.42078 C -303.19819 -462.60061 -307.26154 -462.49364 -312.79125 -461.10245 L -321.19694 -458.9863 L -316.20603 -439.17459 L -310.82806 -440.53058 C -307.02181 -441.48837 -304.4986 -442.56945 -303.27917 -443.79343 C -301.98696 -445.0348 -301.59891 -446.81426 -302.10456 -449.13006 C -300.65184 -450.03165 -299.07197 -450.70014 -297.34878 -451.13355 C -297.0411 -449.30097 -296.35375 -446.27392 -295.28896 -442.03695 C -294.1332 -437.44098 -293.26324 -434.33432 -292.7041 -432.71866 C -294.64373 -432.22907 -296.28294 -432.03895 -297.61233 -432.16469 C -298.42296 -434.47883 -299.68828 -435.88515 -301.41417 -436.36753 C -303.06748 -436.86783 -305.79348 -436.63491 -309.5992 -435.67713 L -314.9906 -434.32373 L -312.14271 -423.01434 C -311.56484 -420.71619 -310.90397 -419.01131 -310.16557 -417.89889 C -309.37367 -416.8769 -308.34661 -416.26186 -307.06912 -416.04784 C -305.73947 -415.91407 -303.89538 -416.15447 -301.52527 -416.75374 L -300.87466 -416.91445 C -296.70945 -417.9632 -293.60196 -419.12152 -291.55637 -420.39848 C -289.44016 -421.69603 -288.0186 -423.1602 -287.2848 -424.79511 C -286.49558 -426.52072 -285.94435 -428.8773 -285.62598 -431.8598 C -283.59538 -431.99351 -281.81726 -431.59213 -280.28936 -430.68519 C -280.73346 -426.98488 -280.60493 -422.3917 -279.9147 -416.91497 L -300.73565 -411.78608 C -311.07669 -409.18567 -319.39341 -407.02114 -325.67677 -405.28777 C -326.23593 -407.51367 -326.46075 -409.18284 -326.35373 -410.27868 C -324.59601 -410.87528 -323.33319 -411.48539 -322.57928 -412.13283 C -321.75258 -412.79899 -321.30836 -413.75417 -321.2388 -414.99467 C -321.1585 -416.23337 -321.42644 -418.00604 -321.99896 -420.30391 L -329.13289 -448.6319 C -329.65725 -450.71601 -330.26956 -452.23909 -330.9705 -453.20785 C -331.59921 -454.19505 -332.43144 -454.78092 -333.47216 -454.97621 C -334.44332 -455.19025 -335.80515 -455.16354 -337.56441 -454.86924 C -338.19313 -455.85645 -338.77624 -457.42979 -339.31935 -459.58368 C -334.11281 -460.7421 -328.45964 -462.08498 -322.35552 -463.62065 C -309.14199 -466.94474 -300.32426 -469.22848 -295.90804 -470.49206 L -295.91063 -470.50395 z M -375.3926 -470.26314 C -372.45905 -470.28994 -369.82631 -469.96074 -367.49799 -469.23839 C -362.78533 -467.87663 -359.75521 -464.27629 -358.42877 -458.42665 C -357.36398 -453.73272 -357.90709 -449.43239 -360.06071 -445.52769 C -362.13947 -441.63937 -365.48145 -438.80062 -370.08388 -436.99747 L -370.09783 -436.98403 C -355.76328 -439.39987 -347.29039 -434.86205 -344.68646 -423.37969 C -343.24444 -417.02468 -344.24249 -411.37037 -347.67284 -406.41587 C -351.04942 -401.54992 -357.10146 -398.12528 -365.83969 -396.14363 C -380.06643 -392.91741 -389.8652 -390.57921 -395.23221 -389.13424 C -395.70574 -391.22905 -395.87439 -392.82508 -395.74329 -393.91792 C -393.75282 -394.51987 -392.32318 -395.22617 -391.4433 -396.03407 C -390.49087 -396.85809 -389.95859 -398.04607 -389.85425 -399.58735 C -389.69373 -401.21927 -389.93475 -403.43525 -390.5741 -406.25102 L -400.66651 -450.78215 C -401.48512 -454.39309 -402.57941 -456.68539 -403.94331 -457.66752 C -405.24889 -458.73766 -407.35347 -459.02085 -410.27522 -458.50985 C -410.86649 -459.43821 -411.40408 -460.94995 -411.88029 -463.04445 C -408.94248 -463.4832 -405.16543 -464.22141 -400.54352 -465.27016 L -392.76001 -467.15118 C -391.04511 -467.61669 -388.49584 -468.23482 -385.10053 -469.00533 C -381.56183 -469.80793 -378.32872 -470.22248 -375.39518 -470.26262 L -375.3926 -470.26314 z M -1291.0716 -465.16009 L -1291.0716 -465.14717 C -1285.9085 -463.80949 -1280.27 -462.43691 -1274.1357 -461.02752 C -1260.856 -457.97739 -1251.9603 -456.00768 -1247.4525 -455.12401 C -1248.2177 -448.15768 -1248.556 -443.52733 -1248.4757 -441.22977 C -1249.8856 -440.71879 -1251.5982 -440.68902 -1253.6191 -441.14915 C -1253.2098 -444.24669 -1253.935 -446.92181 -1255.7756 -449.16778 C -1257.5436 -451.39636 -1261.1957 -453.15874 -1266.7527 -454.43516 L -1275.2002 -456.37251 L -1279.7767 -436.45021 L -1274.3568 -435.20584 C -1270.5318 -434.32564 -1267.8008 -434.1597 -1266.1584 -434.69476 C -1264.4434 -435.21111 -1263.2916 -436.61851 -1262.6883 -438.91156 C -1260.9841 -439.04533 -1259.264 -438.92316 -1257.5315 -438.52347 C -1258.0906 -436.75238 -1258.8612 -433.74027 -1259.8404 -429.48216 C -1260.9025 -424.8632 -1261.5516 -421.7049 -1261.7897 -420.01194 C -1263.7374 -420.45872 -1265.2801 -421.03912 -1266.4075 -421.75344 C -1266.0784 -424.1853 -1266.568 -426.01368 -1267.887 -427.22804 C -1269.131 -428.42392 -1271.6659 -429.45956 -1275.4906 -430.33896 L -1280.896 -431.58281 L -1283.5093 -420.21865 C -1284.0417 -417.90981 -1284.2286 -416.08366 -1284.0761 -414.75748 C -1283.8353 -413.48668 -1283.195 -412.47262 -1282.1543 -411.70185 C -1281.0279 -410.98753 -1279.2827 -410.35369 -1276.9009 -409.80791 L -1276.2508 -409.6472 C -1272.0647 -408.68674 -1268.7686 -408.3069 -1266.3656 -408.5129 C -1263.8909 -408.70017 -1261.9568 -409.36639 -1260.5592 -410.49004 C -1259.0744 -411.66987 -1257.4995 -413.51018 -1255.8587 -416.01994 L -1255.8587 -416.03389 C -1253.9944 -415.22592 -1252.587 -414.07294 -1251.642 -412.56382 C -1253.7208 -409.47028 -1255.6966 -405.32609 -1257.5729 -400.1346 L -1278.4496 -405.04283 C -1288.842 -407.4292 -1297.2272 -409.28623 -1303.6114 -410.60063 C -1303.0978 -412.83723 -1302.5466 -414.41491 -1301.9526 -415.34246 C -1300.1147 -415.07224 -1298.7148 -415.05108 -1297.7492 -415.28923 C -1296.7112 -415.50327 -1295.873 -416.15323 -1295.247 -417.22606 C -1294.621 -418.29888 -1294.0487 -419.99078 -1293.519 -422.30017 L -1286.9793 -450.76665 C -1286.4977 -452.85878 -1286.3524 -454.50637 -1286.537 -455.68831 C -1286.644 -456.8521 -1287.1185 -457.74813 -1287.9612 -458.39771 C -1288.729 -459.0291 -1289.9527 -459.62607 -1291.6524 -460.16918 C -1291.7594 -461.33297 -1291.5694 -462.99437 -1291.0716 -465.16009 z M -381.87644 -463.83355 C -383.88029 -463.96732 -385.97265 -463.80712 -388.1391 -463.30956 C -389.72828 -462.94839 -391.16275 -462.41837 -392.45254 -461.74686 L -386.21726 -434.23433 L -382.85777 -434.99449 C -371.37542 -437.59756 -366.67648 -443.49181 -368.75631 -452.66318 C -369.90404 -457.71823 -372.35445 -460.99139 -376.11141 -462.49307 C -377.95474 -463.25288 -379.87178 -463.69927 -381.87644 -463.83304 L -381.87644 -463.83355 z M -1228.4981 -450.86535 C -1225.7722 -450.15103 -1221.8025 -449.26285 -1216.581 -448.18335 L -1208.7278 -446.66354 C -1204.9269 -446.02947 -1202.0456 -445.51878 -1200.0875 -445.1148 C -1193.1256 -443.67812 -1188.1414 -441.24697 -1185.1421 -437.82894 C -1182.143 -434.41169 -1181.0795 -430.60122 -1181.9485 -426.39501 C -1182.818 -422.18912 -1184.875 -418.98837 -1188.128 -416.78681 C -1191.3657 -414.65726 -1195.4796 -413.61592 -1200.4606 -413.66194 C -1198.8741 -412.19851 -1197.6446 -410.62381 -1196.7828 -408.93406 C -1195.8331 -407.30208 -1194.4263 -404.25272 -1192.5525 -399.78165 C -1191.1934 -396.47623 -1189.6273 -394.00961 -1187.852 -392.3573 C -1185.9872 -390.76279 -1183.5542 -389.56459 -1180.5383 -388.79007 C -1180.9744 -386.68723 -1181.4364 -385.20758 -1181.9206 -384.32471 C -1188.0849 -385.59819 -1193.3536 -386.42228 -1197.7372 -386.7995 C -1198.0662 -387.77601 -1198.7272 -389.49553 -1199.7278 -391.97024 L -1202.9907 -400.91543 C -1204.7457 -405.96598 -1207.5303 -410.36277 -1211.369 -414.10481 L -1214.8804 -414.712 L -1218.0047 -415.47165 L -1220.0511 -405.57251 C -1220.5461 -403.18074 -1220.7272 -401.37447 -1220.6041 -400.13925 C -1220.4704 -398.90323 -1220.066 -397.98834 -1219.3597 -397.388 C -1218.5785 -396.77267 -1217.3245 -396.24312 -1215.5992 -395.81238 C -1215.4922 -394.88136 -1215.6552 -393.3296 -1216.1108 -391.15324 C -1218.7648 -391.8515 -1222.7101 -392.74208 -1227.9313 -393.82026 C -1231.775 -394.61484 -1235.7306 -395.35355 -1239.8215 -396.04648 C -1239.4014 -398.07707 -1238.9145 -399.57201 -1238.342 -400.51235 C -1236.4987 -400.27157 -1235.0992 -400.29794 -1234.1391 -400.53871 C -1233.1064 -400.7795 -1232.2916 -401.40576 -1231.7057 -402.41973 C -1231.1198 -403.4337 -1230.607 -405.02783 -1230.1575 -407.2029 L -1224.0607 -436.67862 C -1223.416 -439.79676 -1223.427 -441.95395 -1224.0876 -443.14903 C -1224.7484 -444.34492 -1226.3575 -445.28411 -1228.94 -445.96953 C -1229.0738 -447.13332 -1228.9398 -448.76045 -1228.4976 -450.86329 L -1228.4981 -450.86535 z M -1212.5022 -442.14082 L -1216.8436 -421.15502 C -1215.3642 -420.62261 -1214.0115 -420.22114 -1212.7792 -419.96698 L -1212.7792 -419.95303 C -1207.5577 -418.87485 -1203.0926 -418.9046 -1199.3821 -420.03364 C -1195.6567 -421.22953 -1193.4254 -423.60077 -1192.691 -427.15362 C -1191.1634 -434.55068 -1195.478 -439.31005 -1205.6313 -441.40753 C -1207.9508 -441.88642 -1210.237 -442.12744 -1212.5022 -442.14082 z M -1073.3779 -441.81009 C -1069.0834 -440.97805 -1062.9406 -439.98277 -1054.949 -438.85162 C -1041.6056 -436.96014 -1031.2974 -435.60974 -1024.0078 -434.8007 C -1024.4172 -426.63206 -1024.462 -420.73829 -1024.1602 -417.10462 C -1025.3855 -416.37958 -1027.1048 -416.16787 -1029.3036 -416.48089 C -1029.0896 -420.63862 -1030.1096 -424.18652 -1032.3866 -427.12675 C -1034.5777 -430.12985 -1038.9028 -432.08764 -1045.3548 -433.00236 L -1055.5857 -434.4555 L -1059.8578 -404.31574 L -1052.9311 -403.33389 C -1048.3121 -402.67842 -1045.0784 -402.8286 -1043.2257 -403.76229 C -1041.2887 -404.76016 -1040.0236 -407.01386 -1039.4513 -410.5226 C -1037.6187 -410.79014 -1035.8329 -410.79054 -1034.0733 -410.53655 C -1034.5736 -408.06451 -1035.2027 -404.07622 -1035.9812 -398.57759 C -1036.8346 -392.56551 -1037.3647 -388.30273 -1037.5708 -385.78922 C -1039.5505 -386.07013 -1041.2206 -386.49544 -1042.5617 -387.05995 C -1042.321 -390.91403 -1042.9657 -393.63401 -1044.5388 -395.20312 C -1046.029 -396.83508 -1049.0494 -397.97339 -1053.5946 -398.6179 L -1060.5208 -399.59975 L -1063.3413 -379.6914 C -1063.7346 -376.90533 -1063.7845 -374.73275 -1063.4803 -373.19361 C -1063.1646 -371.72751 -1062.3556 -370.6011 -1061.0474 -369.82017 C -1059.6642 -369.02558 -1057.5696 -368.43172 -1054.7842 -368.03578 L -1054.1346 -367.9283 C -1049.076 -367.2113 -1045.1159 -367.17391 -1042.2584 -367.82133 C -1039.4 -368.46342 -1037.2115 -369.60876 -1035.7053 -371.26401 C -1034.1242 -372.90936 -1032.459 -375.40133 -1030.7144 -378.74366 C -1028.6918 -377.78588 -1027.2036 -376.67543 -1026.2629 -375.42551 C -1028.2694 -371.2972 -1030.1714 -366.00003 -1031.9866 -359.52623 C -1037.6846 -360.48396 -1045.5317 -361.66664 -1055.503 -363.0795 C -1068.9935 -364.99238 -1078.4948 -366.22528 -1084.0248 -366.7847 C -1083.7225 -368.91162 -1083.3193 -370.46925 -1082.8083 -371.44384 C -1080.7349 -371.31007 -1079.1481 -371.44784 -1078.0386 -371.88516 C -1076.8561 -372.31589 -1075.9358 -373.23376 -1075.2873 -374.63641 C -1074.6398 -376.04098 -1074.112 -378.21517 -1073.6973 -381.14816 L -1067.2827 -426.34282 C -1066.7637 -430.0086 -1066.9679 -432.54459 -1067.8909 -433.94701 C -1068.7309 -435.41306 -1070.6066 -436.42712 -1073.5179 -436.98868 C -1073.7319 -438.06685 -1073.6994 -439.67418 -1073.3784 -441.79976 L -1073.3779 -441.81009 z M -1158.2518 -436.57062 C -1153.0311 -435.47907 -1147.3306 -434.38181 -1141.136 -433.26591 C -1127.7268 -430.84738 -1118.7489 -429.30324 -1114.2043 -428.63467 C -1114.6377 -421.63997 -1114.7534 -416.99003 -1114.5635 -414.69857 C -1115.9466 -414.12069 -1117.6669 -414.02716 -1119.7069 -414.39368 C -1119.4394 -417.50695 -1120.278 -420.13141 -1122.223 -422.28777 C -1124.0931 -424.43072 -1127.8376 -426.01857 -1133.4492 -427.03012 L -1141.9794 -428.56594 L -1145.6019 -408.44985 L -1140.1407 -407.468 C -1136.2788 -406.77241 -1133.5434 -406.7215 -1131.9283 -407.33416 C -1130.2402 -407.93344 -1129.1438 -409.38385 -1128.6515 -411.7034 C -1126.958 -411.91742 -1125.2307 -411.8906 -1123.4808 -411.56956 C -1123.9543 -409.77438 -1124.5881 -406.71668 -1125.3613 -402.41715 C -1126.2014 -397.75318 -1126.6968 -394.58001 -1126.8547 -392.87768 C -1128.8211 -393.23351 -1130.381 -393.73668 -1131.5413 -394.39748 C -1131.3273 -396.84276 -1131.9109 -398.63901 -1133.2833 -399.7894 C -1134.5836 -400.92644 -1137.1637 -401.84375 -1141.0254 -402.54014 L -1146.4866 -403.52199 L -1148.5604 -392.04724 C -1148.9804 -389.71432 -1149.0782 -387.89053 -1148.8642 -386.57264 C -1148.5645 -385.31523 -1147.8772 -384.31989 -1146.8044 -383.60021 C -1145.646 -382.9394 -1143.8595 -382.39091 -1141.4538 -381.95483 L -1140.8043 -381.84786 C -1136.5775 -381.08538 -1133.2682 -380.8633 -1130.8777 -381.18434 C -1128.4142 -381.49195 -1126.5107 -382.23561 -1125.168 -383.42348 C -1123.7393 -384.67015 -1122.2636 -386.58881 -1120.744 -389.17455 C -1118.8477 -388.45488 -1117.3882 -387.37134 -1116.3748 -385.9117 C -1118.3037 -382.72293 -1120.0834 -378.48096 -1121.7114 -373.20653 L -1142.7948 -377.11895 C -1153.289 -379.01044 -1161.7529 -380.46323 -1168.1923 -381.47372 C -1167.7856 -383.73173 -1167.303 -385.34418 -1166.7546 -386.29875 C -1164.9059 -386.11147 -1163.5045 -386.16506 -1162.5513 -386.43259 C -1161.5266 -386.70013 -1160.7209 -387.37993 -1160.1457 -388.4795 C -1159.5705 -389.57908 -1159.0729 -391.29049 -1158.6528 -393.62234 L -1153.4821 -422.37924 C -1153.0995 -424.49273 -1153.0228 -426.12882 -1153.2598 -427.3009 C -1153.4203 -428.45934 -1153.9333 -429.3477 -1154.8081 -429.955 C -1155.6027 -430.54893 -1156.8735 -431.06778 -1158.5965 -431.53062 C -1158.757 -432.68906 -1158.6445 -434.36365 -1158.2508 -436.54943 L -1158.2518 -436.57062 z M -445.45912 -436.07297 C -443.36966 -429.3838 -441.82126 -425.01203 -440.82736 -422.93889 C -441.91355 -421.90353 -443.47877 -421.19137 -445.51441 -420.80879 C -446.38123 -423.81029 -448.1121 -425.97232 -450.69859 -427.29315 C -453.21075 -428.62817 -457.26232 -428.76435 -462.86529 -427.70759 L -471.38157 -426.10511 L -467.59369 -406.01693 L -462.13252 -407.05511 C -458.27571 -407.78281 -455.7083 -408.71397 -454.41775 -409.86165 C -453.05599 -411.02277 -452.55829 -412.77227 -452.92481 -415.11508 C -451.41863 -415.92573 -449.79043 -416.50116 -448.04449 -416.83022 C -447.85721 -414.98422 -447.34928 -411.91593 -446.53864 -407.62251 C -445.66112 -402.96554 -444.98414 -399.81189 -444.51861 -398.16573 C -446.48234 -397.79386 -448.13504 -397.71892 -449.45422 -397.92492 C -450.12573 -400.28454 -451.30276 -401.7504 -452.99354 -402.3355 C -454.61214 -402.93479 -457.34811 -402.88096 -461.20545 -402.14791 L -466.66661 -401.11283 L -464.51067 -389.65152 C -464.07192 -387.32396 -463.50993 -385.58017 -462.83842 -384.42548 C -462.10804 -383.358 -461.11268 -382.68095 -459.85204 -382.39201 C -458.53309 -382.17798 -456.68111 -382.31191 -454.28029 -382.76408 L -453.61676 -382.89793 C -449.39616 -383.69247 -446.23724 -384.66359 -444.11863 -385.81506 C -441.92756 -386.98152 -440.41473 -388.35923 -439.58403 -389.94866 C -438.69581 -391.61809 -437.99494 -393.93301 -437.49733 -396.87537 C -435.46404 -396.88237 -433.71378 -396.37226 -432.24339 -395.369 C -432.90956 -391.70187 -433.06241 -387.12104 -432.70124 -381.61273 L -453.79866 -377.74165 C -464.27721 -375.76455 -472.69488 -374.10421 -479.07102 -372.75074 C -479.49641 -375.00607 -479.63301 -376.68229 -479.45911 -377.76956 C -477.66662 -378.25916 -476.37887 -378.79954 -475.58803 -379.4015 C -474.72389 -380.01683 -474.21003 -380.9476 -474.06823 -382.18014 C -473.93446 -383.41348 -474.07323 -385.18787 -474.51006 -387.51677 L -479.92937 -416.21837 C -480.32799 -418.32923 -480.84946 -419.89576 -481.49155 -420.90491 C -482.0614 -421.92958 -482.85363 -422.56888 -483.88365 -422.82572 C -484.83876 -423.09593 -486.20058 -423.14685 -487.9759 -422.95956 C -488.54575 -423.98423 -489.04339 -425.57629 -489.4554 -427.7572 C -484.18846 -428.59994 -478.45558 -429.60317 -472.2704 -430.77097 C -458.88137 -433.29651 -449.94743 -435.05604 -445.46325 -436.0523 L -445.45912 -436.07297 z M -372.3349 -431.42778 L -372.33748 -431.42726 C -375.37429 -431.44576 -378.81946 -431.01259 -382.66502 -430.1431 L -385.15324 -429.5757 L -380.38351 -408.56148 C -379.69593 -405.52843 -378.93351 -403.352 -378.10147 -402.02234 C -377.21328 -400.78097 -376.03595 -400.06118 -374.5482 -399.86588 C -373.0607 -399.67861 -370.86922 -399.89228 -367.98116 -400.55576 C -362.78163 -401.7356 -359.21854 -403.90826 -357.28052 -407.08146 C -355.28737 -410.343 -354.82763 -414.39554 -355.92453 -419.23421 C -357.75442 -427.30423 -363.22462 -431.37225 -372.33438 -431.42778 L -372.3349 -431.42778 z M -513.1754 -423.2288 C -509.70705 -423.09503 -506.02999 -422.58974 -502.143 -421.69349 C -502.43996 -418.79902 -502.14233 -414.56193 -501.2707 -409.00176 C -502.55756 -408.12691 -504.34021 -407.51945 -506.60733 -407.16363 C -507.5704 -411.88453 -509.41101 -414.99914 -512.12378 -416.52326 C -514.77506 -418.13115 -518.33375 -418.59149 -522.79652 -417.89321 C -530.11252 -416.74817 -535.28077 -413.87685 -538.30875 -409.28029 C -541.33699 -404.6838 -542.39126 -399.45507 -541.47496 -393.60218 C -540.75266 -388.99337 -539.14718 -384.97983 -536.66337 -381.54659 C -534.11642 -378.19783 -530.88898 -375.73807 -526.97197 -374.17753 C -522.98198 -372.62849 -518.49493 -372.2513 -513.52008 -373.02979 C -510.52046 -373.49797 -507.49305 -374.30862 -504.45035 -375.46169 C -501.41889 -376.68433 -498.69319 -378.15609 -496.26584 -379.88571 C -495.7709 -379.58876 -495.28135 -379.10996 -494.79978 -378.43308 C -494.33159 -377.83113 -494.00801 -377.23992 -493.8448 -376.66471 C -497.57502 -373.68227 -501.18131 -371.31512 -504.65602 -369.57212 C -508.14229 -367.90273 -512.1857 -366.71355 -516.79482 -365.99146 C -522.79373 -365.05246 -528.32536 -365.41618 -533.38554 -367.09631 C -538.44568 -368.77906 -542.62938 -371.57098 -545.93877 -375.47461 C -549.24819 -379.37871 -551.34515 -384.11305 -552.21539 -389.67322 C -553.14375 -395.59915 -552.42944 -400.87733 -550.08581 -405.51722 C -547.75022 -410.22982 -544.3001 -414.03412 -539.73037 -416.92324 C -535.0878 -419.82361 -529.91098 -421.72572 -524.2047 -422.61902 C -520.32729 -423.22628 -516.65214 -423.43006 -513.1723 -423.22673 L -513.1754 -423.2288 z M -568.79474 -415.20086 C -568.5286 -412.9998 -568.50334 -411.32708 -568.6609 -410.19135 C -570.18852 -409.86229 -571.31764 -409.31654 -572.04829 -408.55941 C -572.77866 -407.80228 -573.22563 -406.59882 -573.40221 -404.93741 C -573.50924 -403.35895 -573.38551 -401.01701 -573.02756 -397.9275 L -568.4511 -358.99603 C -569.35531 -358.44224 -570.82958 -358.03542 -572.88907 -357.79196 L -617.64189 -396.93118 L -614.53149 -370.45579 C -614.15962 -367.29352 -613.69114 -364.92449 -613.13467 -363.34976 C -612.50328 -361.78473 -611.68181 -360.73308 -610.64645 -360.18355 C -609.61108 -359.6351 -608.16097 -359.39465 -606.30512 -359.46421 C -605.79947 -358.3299 -605.41963 -356.68793 -605.17082 -354.55599 C -609.15947 -354.23761 -612.44069 -353.93226 -615.01466 -353.62994 C -618.47123 -353.22333 -621.80515 -352.74726 -625.02387 -352.22021 C -625.26466 -354.35248 -625.29145 -356.03249 -625.05074 -357.25246 C -623.22882 -357.6163 -621.91568 -358.18902 -621.11093 -358.95417 C -620.23341 -359.72736 -619.71404 -360.94163 -619.5348 -362.60356 C -619.29402 -364.273 -619.34788 -366.68582 -619.72238 -369.84859 L -623.51078 -402.06161 L -623.64463 -402.16858 C -624.21983 -402.6234 -624.91806 -402.87739 -625.74476 -402.92823 C -626.57947 -403.062 -628.14714 -403.062 -630.44524 -402.92823 C -630.96692 -404.20973 -631.34677 -405.85081 -631.57954 -407.83646 C -628.91487 -407.99699 -626.33778 -408.21593 -623.83738 -408.5129 C -621.55797 -408.78044 -619.24679 -409.12578 -616.91067 -409.5485 L -575.33801 -372.73162 L -578.22724 -397.32702 C -578.59109 -400.41599 -579.08338 -402.70589 -579.70674 -404.19843 C -580.2659 -405.77422 -581.06346 -406.84439 -582.09884 -407.39204 C -583.13419 -407.94048 -584.60577 -408.17293 -586.53681 -408.09535 C -587.02908 -409.75139 -587.3685 -411.38552 -587.55846 -413.00358 C -583.86405 -413.28985 -580.69469 -413.59193 -578.04689 -413.90223 L -578.03294 -413.8888 C -575.24179 -414.21747 -572.15602 -414.65598 -568.79474 -415.20086 z M -1009.8634 -413.23303 C -1006.5745 -412.65252 -1002.3537 -412.08825 -997.20064 -411.53184 C -992.1945 -410.99141 -988.21049 -410.67534 -985.24168 -410.57634 C -985.42897 -408.80794 -985.74884 -407.24216 -986.19562 -405.87585 C -987.75804 -405.89385 -988.92343 -405.71524 -989.70704 -405.36477 C -990.4829 -405.07583 -990.91842 -404.5171 -991.0067 -403.70647 C -991.14047 -402.45445 -990.29198 -400.39305 -988.43528 -397.51254 L -981.70236 -387.51677 L -974.19481 -394.85792 C -971.61039 -397.40755 -970.24238 -399.45047 -970.07516 -400.99656 C -969.88789 -402.83721 -971.34223 -404.04197 -974.48574 -404.60513 C -974.64625 -405.88664 -974.61647 -407.48695 -974.40254 -409.40225 C -971.18708 -408.8324 -967.85313 -408.36707 -964.39282 -407.99252 C -960.27007 -407.54572 -956.97559 -407.29935 -954.5221 -407.25923 C -954.76288 -405.12428 -955.08283 -403.55745 -955.48949 -402.55874 C -957.54946 -402.11195 -959.33575 -401.41371 -960.85402 -400.45861 C -962.29069 -399.57038 -964.62284 -397.51532 -967.87684 -394.29258 L -979.10303 -383.55008 C -975.06195 -377.52735 -971.92666 -372.68468 -969.71601 -369.0197 L -967.07534 -364.59568 C -965.31763 -361.57524 -963.97162 -359.48908 -963.05182 -358.34697 C -962.13418 -357.20458 -960.94803 -356.44432 -959.49906 -356.06442 L -959.52542 -356.06442 C -959.23381 -354.61705 -959.17498 -353.02038 -959.35953 -351.25335 C -962.20692 -351.78575 -966.16927 -352.32391 -971.24925 -352.87237 C -973.90054 -353.15863 -978.21631 -353.5142 -984.2035 -353.9369 C -984.01622 -355.63041 -983.70169 -357.19618 -983.24955 -358.63739 C -981.68715 -358.61939 -980.52767 -358.74464 -979.75209 -359.03892 C -978.97623 -359.32787 -978.53478 -359.91098 -978.43847 -360.79385 C -978.27794 -362.34021 -979.26172 -364.98532 -981.38351 -368.71585 C -983.52112 -372.37302 -985.48839 -375.52003 -987.28703 -378.17212 L -996.34229 -369.87702 C -997.99835 -368.34403 -999.20405 -367.10329 -999.97824 -366.14391 C -1000.7514 -365.18346 -1001.1865 -364.33561 -1001.264 -363.59988 C -1001.344 -362.86416 -1000.9993 -362.19783 -1000.2547 -361.59587 C -999.41742 -361.05812 -998.09469 -360.54206 -996.287 -360.04712 C -996.04622 -358.75498 -996.04621 -357.15027 -996.26012 -355.23605 C -999.54922 -355.8166 -1003.179 -356.31116 -1007.1546 -356.7419 C -1011.3504 -357.19403 -1014.7804 -357.46464 -1017.4547 -357.53152 C -1017.2139 -359.81356 -1016.8169 -361.36884 -1016.2791 -362.20462 C -1013.0836 -362.82793 -1008.7419 -365.561 -1003.2282 -370.40256 L -989.78972 -382.01581 L -997.76753 -393.94738 L -1000.1725 -397.55543 L -1002.7719 -401.41307 C -1004.6286 -404.2206 -1005.9382 -405.96252 -1006.6843 -406.63911 C -1007.3505 -407.38019 -1008.3964 -407.98479 -1009.8366 -408.43694 C -1010.0505 -409.80102 -1010.0773 -411.39234 -1009.8634 -413.23303 z M -649.92054 -406.2443 C -648.57852 -399.3724 -647.53003 -394.8439 -646.76983 -392.67511 C -647.96304 -391.76815 -649.58289 -391.24339 -651.65015 -391.08554 C -652.18255 -394.16408 -653.66483 -396.49852 -656.08812 -398.09545 C -658.43977 -399.698 -662.45857 -400.28645 -668.14372 -399.85038 L -676.78453 -399.18685 L -675.22236 -378.80825 L -669.69194 -379.23613 C -665.77874 -379.53578 -663.10955 -380.17289 -661.7007 -381.17348 C -660.21855 -382.17674 -659.53387 -383.86413 -659.64088 -386.23312 C -658.05439 -386.87521 -656.37973 -387.2713 -654.60863 -387.40773 C -654.61563 -385.55103 -654.44809 -382.44573 -654.11098 -378.08943 C -653.74981 -373.36398 -653.43157 -370.15354 -653.156 -368.46677 C -655.14915 -368.30625 -656.78868 -368.41307 -658.07767 -368.75822 C -658.48701 -371.17676 -659.50102 -372.77462 -661.11934 -373.54191 C -662.66304 -374.3151 -665.39064 -374.54796 -669.30385 -374.24832 L -674.8477 -373.82044 L -673.94853 -362.19325 C -673.76127 -359.8309 -673.41097 -358.03658 -672.87056 -356.81528 C -672.26325 -355.67291 -671.35376 -354.89145 -670.13326 -354.46607 C -668.84374 -354.12095 -666.98343 -354.04602 -664.54756 -354.22526 L -663.88403 -354.279 C -659.60158 -354.60806 -656.34202 -355.21774 -654.10943 -356.13005 C -651.80332 -357.04769 -650.14648 -358.24925 -649.14643 -359.73862 C -648.07895 -361.30634 -647.13171 -363.53198 -646.31198 -366.41624 L -646.2851 -366.41624 C -644.26259 -366.20221 -642.57627 -365.5143 -641.22495 -364.35591 C -642.28706 -360.78404 -642.94252 -356.23887 -643.18865 -350.72418 L -664.57649 -349.20489 C -675.20861 -348.39158 -683.76428 -347.66375 -690.25038 -347.01898 C -690.43765 -349.3091 -690.38396 -350.97542 -690.08967 -352.03728 C -688.25437 -352.32621 -686.91871 -352.73034 -686.06666 -353.24134 C -685.14098 -353.75768 -684.53364 -354.61642 -684.2554 -355.82568 C -683.97717 -357.03494 -683.93963 -358.82654 -684.12155 -361.18969 L -686.34726 -390.30626 C -686.50779 -392.44655 -686.85304 -394.05766 -687.38544 -395.13129 C -687.83757 -396.20946 -688.56009 -396.93146 -689.55533 -397.30066 C -690.47566 -397.67521 -691.821 -397.86813 -693.60573 -397.88151 C -694.06054 -398.95969 -694.37667 -400.61588 -694.54521 -402.83108 C -689.21776 -403.09861 -683.41487 -403.45435 -677.13904 -403.93592 C -663.55539 -404.97649 -654.48771 -405.74401 -649.92054 -406.2443 z M -911.02812 -404.38447 L -911.02708 -404.38395 C -907.11226 -404.10303 -903.49162 -403.48531 -900.14661 -402.50345 C -896.79631 -401.59651 -893.32405 -400.26397 -889.73639 -398.52178 C -890.67277 -395.76749 -891.34126 -391.58869 -891.73989 -385.98198 C -893.18993 -385.41748 -895.06312 -385.21158 -897.3535 -385.37478 C -897.21973 -390.19172 -898.3271 -393.64962 -900.62979 -395.74417 C -902.8503 -397.90585 -906.2027 -399.15517 -910.70824 -399.47676 C -918.0946 -400.0038 -923.78561 -398.36937 -927.7687 -394.56905 C -931.75173 -390.7703 -933.9557 -385.90584 -934.3776 -379.99681 C -934.70935 -375.3436 -934.05117 -371.07126 -932.40046 -367.1671 C -930.6695 -363.33148 -928.07001 -360.2073 -924.603 -357.80695 C -921.06269 -355.4018 -916.78202 -354.0179 -911.75934 -353.6594 C -908.73109 -353.44537 -905.59534 -353.55239 -902.3718 -353.99116 C -899.14289 -354.50216 -896.15298 -355.33967 -893.39922 -356.47938 C -892.98187 -356.07807 -892.62298 -355.48961 -892.3073 -354.72445 C -891.98626 -354.03421 -891.81541 -353.38638 -891.7833 -352.7871 C -896.08819 -350.71905 -900.11656 -349.22597 -903.89419 -348.30779 C -907.6664 -347.46506 -911.89133 -347.21641 -916.54458 -347.54815 C -922.6013 -347.97889 -927.90414 -349.58408 -932.4573 -352.35922 C -937.01051 -355.13412 -940.45062 -358.78874 -942.79879 -363.33633 C -945.14776 -367.88414 -946.13065 -372.97237 -945.72988 -378.58604 C -945.30449 -384.56897 -943.41805 -389.55081 -940.08888 -393.54482 C -936.75456 -397.61271 -932.54067 -400.54882 -927.439 -402.33757 C -922.26356 -404.12199 -916.78947 -404.79648 -911.02812 -404.38447 z M -876.3398 -401.64665 C -871.01609 -401.31758 -865.2102 -401.0447 -858.91967 -400.83068 C -845.30211 -400.36784 -836.19425 -400.13497 -831.60092 -400.12426 C -831.02309 -393.14 -830.4719 -388.52563 -829.95555 -386.28532 C -831.24241 -385.51215 -832.92968 -385.16147 -835.00175 -385.2337 C -835.18903 -388.35211 -836.40355 -390.83221 -838.6377 -392.68596 C -840.79672 -394.53731 -844.71835 -395.5616 -850.41683 -395.75502 L -859.08555 -396.05991 L -859.77543 -375.62602 L -854.21763 -375.43895 C -850.29533 -375.30519 -847.58522 -375.65267 -846.07498 -376.49005 C -844.49116 -377.32476 -843.61636 -378.91945 -843.46118 -381.28769 C -841.81584 -381.75052 -840.10743 -381.95375 -838.33178 -381.89489 C -838.5458 -380.04888 -838.72517 -376.94352 -838.87232 -372.57711 C -839.03284 -367.84037 -839.05954 -364.62025 -838.97929 -362.9131 C -840.97774 -362.9934 -842.58846 -363.25827 -843.8317 -363.74251 C -843.96547 -366.1931 -844.81375 -367.88913 -846.33336 -368.83005 C -847.78341 -369.7691 -850.47103 -370.29877 -854.39333 -370.43254 L -859.93718 -370.62012 L -860.33871 -358.96554 C -860.41901 -356.59783 -860.25841 -354.77758 -859.8545 -353.50437 C -859.37561 -352.30314 -858.54617 -351.42282 -857.37971 -350.86371 C -856.13567 -350.3768 -854.30532 -350.09037 -851.86325 -350.00743 L -851.18629 -349.98107 C -846.89372 -349.8473 -843.59299 -350.08801 -841.27372 -350.75415 C -838.87926 -351.41497 -837.10867 -352.42899 -835.95105 -353.79583 C -834.7177 -355.23513 -833.527 -357.34992 -832.39778 -360.12774 C -830.41266 -359.69166 -828.81552 -358.81681 -827.60014 -357.51395 C -829.05014 -354.08066 -830.2036 -349.64003 -831.05677 -344.18608 L -852.472 -345.01548 C -863.12928 -345.37666 -871.72484 -345.59333 -878.24252 -345.66557 C -878.16222 -347.95835 -877.92176 -349.61945 -877.50975 -350.64305 C -875.65572 -350.72335 -874.27884 -350.97997 -873.37564 -351.38925 C -872.39913 -351.80126 -871.69826 -352.5961 -871.28894 -353.76792 C -870.8796 -354.93972 -870.63642 -356.70868 -870.55617 -359.07664 L -869.57432 -388.27589 C -869.49402 -390.42154 -869.68137 -392.05833 -870.07196 -393.1836 C -870.4037 -394.30458 -871.03226 -395.10973 -871.97934 -395.58862 C -872.85151 -396.06215 -874.17594 -396.40211 -875.94757 -396.61078 C -876.27931 -397.73176 -876.41006 -399.40799 -876.33515 -401.62908 L -876.3398 -401.64665 z M -728.97463 -401.23324 L -728.97515 -401.23169 C -728.89485 -399.01114 -729.00205 -397.3373 -729.33378 -396.21288 C -731.91818 -395.9721 -733.66901 -395.26045 -734.58721 -394.11275 C -735.4353 -393.04261 -735.79092 -390.92182 -735.66518 -387.73949 L -734.51745 -358.88595 C -734.43715 -356.51828 -734.14328 -354.70643 -733.64566 -353.46613 C -733.15607 -352.29967 -732.30498 -351.48908 -731.10112 -351.01822 C -729.82497 -350.62496 -727.97116 -350.46457 -725.52936 -350.56088 L -724.8524 -350.58775 C -721.37473 -350.72152 -718.65331 -351.1764 -716.68184 -351.9148 C -714.64053 -352.73613 -713.05159 -353.89968 -711.92606 -355.42622 C -710.73018 -357.02877 -709.6383 -359.22563 -708.6353 -362.00721 C -706.62348 -361.71559 -704.96581 -360.96387 -703.65835 -359.75464 C -704.85424 -356.22452 -705.67025 -351.72143 -706.1197 -346.21954 L -725.76552 -345.55602 C -736.42038 -345.13599 -745.00251 -344.71614 -751.50814 -344.31217 C -751.58844 -346.60495 -751.48184 -348.28035 -751.15002 -349.33098 C -749.3816 -349.545 -748.03087 -349.90051 -747.08567 -350.38208 C -746.14126 -350.86364 -745.50151 -351.70119 -745.17778 -352.89976 C -744.77915 -354.101 -744.62671 -355.88346 -744.72302 -358.25033 L -745.88419 -387.44959 C -745.96449 -389.59521 -746.25623 -391.20965 -746.74047 -392.302 C -747.15514 -393.39622 -747.84799 -394.14792 -748.82717 -394.55458 C -749.73411 -394.9639 -751.10651 -395.19953 -752.96076 -395.27443 C -753.30321 -396.44625 -753.52524 -398.10494 -753.61085 -400.25139 C -748.27757 -400.30489 -744.16444 -400.38503 -741.27879 -400.52682 C -738.24559 -400.66059 -734.1482 -400.88548 -728.97463 -401.23324 z M -788.22993 -399.8881 L -788.23096 -399.87828 C -788.22396 -397.65778 -788.39108 -395.99952 -788.77098 -394.88737 C -791.36341 -394.72685 -793.13454 -394.09028 -794.09365 -392.98 C -794.9792 -391.93928 -795.4153 -389.83176 -795.40727 -386.64808 L -795.32717 -357.76664 C -795.31917 -355.39633 -795.08624 -353.57737 -794.63677 -352.31995 C -794.18999 -351.13744 -793.37406 -350.29175 -792.18886 -349.7754 C -790.92876 -349.33397 -789.07393 -349.11729 -786.63106 -349.12531 L -785.96753 -349.12531 C -782.48719 -349.13581 -779.73884 -349.47594 -777.74168 -350.14747 C -775.67094 -350.89389 -774.05542 -352.00684 -772.87531 -353.493 C -771.62057 -355.05273 -770.43798 -357.20587 -769.33599 -359.94946 C -767.33482 -359.58561 -765.7045 -358.77229 -764.44172 -357.51756 C -765.76335 -354.0332 -766.75034 -349.54724 -767.40019 -344.06515 L -787.05997 -344.1189 C -797.72313 -344.0921 -806.31469 -343.98524 -812.83049 -343.81401 C -812.83849 -346.10942 -812.66987 -347.78109 -812.28996 -348.81887 C -810.51353 -348.97939 -809.14528 -349.27609 -808.18375 -349.71752 C -807.2233 -350.1643 -806.55969 -350.9803 -806.19317 -352.16543 C -805.75174 -353.35062 -805.53505 -355.13301 -805.54308 -357.50258 L -805.6237 -386.71526 C -805.6307 -388.86357 -805.86413 -390.48612 -806.31358 -391.59559 C -806.68814 -392.70582 -807.35446 -393.48993 -808.31759 -393.93136 C -809.20848 -394.37281 -810.57011 -394.66187 -812.42328 -394.80366 C -812.72292 -395.98886 -812.88654 -397.66107 -812.89457 -399.808 C -807.56235 -399.67423 -803.45056 -399.62094 -800.56251 -399.62094 C -797.5265 -399.62994 -793.41287 -399.7276 -788.22993 -399.8881 z M -1542.8867 -371.094 C -1542.8867 -322.91649 -1532.1786 -218.98809 -1513.8115 -187.17551 L -1429.9747 -345.43406 L -1542.8867 -371.094 z M -51.298683 -371.094 L -164.21014 -345.43406 L -80.373394 -187.17551 C -62.006298 -218.98809 -51.298683 -322.91649 -51.298683 -371.094 z M -1557.4305 -294.97151 C -1591.6483 -291.54972 -1648.1131 -241.07507 -1649.8254 -176.91722 L -1525.7844 -178.63184 C -1538.6159 -205.1503 -1559.1426 -266.74179 -1557.4305 -294.97151 z M -36.754351 -294.97099 C -35.042375 -266.74127 -55.569544 -205.14983 -68.400998 -178.63132 L 55.640009 -176.9167 C 53.927784 -241.0746 -2.5368648 -291.54925 -36.754351 -294.97099 z M -1128.4856 -273.37645 C -1027.3459 -211.88119 -911.32596 -179.18682 -792.95884 -178.82511 C -676.12174 -178.84341 -561.4509 -210.37076 -461.02665 -270.08569 C -593.5435 -249.39211 -710.83148 -235.52299 -784.4839 -234.47184 C -861.89899 -235.57676 -987.53969 -250.86227 -1128.4856 -273.37645 z " /></g></svg>
